<?xml version="1.0" encoding="UTF-8" standalone="no"?>
<!-- Created with Inkscape (http://www.inkscape.org/) -->

<svg
   xmlns:dc="http://purl.org/dc/elements/1.1/"
   xmlns:cc="http://creativecommons.org/ns#"
   xmlns:rdf="http://www.w3.org/1999/02/22-rdf-syntax-ns#"
   xmlns:svg="http://www.w3.org/2000/svg"
   xmlns="http://www.w3.org/2000/svg"
   xmlns:sodipodi="http://sodipodi.sourceforge.net/DTD/sodipodi-0.dtd"
   xmlns:inkscape="http://www.inkscape.org/namespaces/inkscape"
   width="2160"
   height="1530"
   id="svg11104"
   version="1.1"
   inkscape:version="0.48.2 r9819"
   sodipodi:docname="DoubleBot2.svg">
  <sodipodi:namedview
     id="base"
     pagecolor="#ffffff"
     bordercolor="#666666"
     borderopacity="1.0"
     inkscape:pageopacity="0.0"
     inkscape:pageshadow="2"
     inkscape:zoom="0.5124183"
     inkscape:cx="1080"
     inkscape:cy="765"
     inkscape:document-units="px"
     inkscape:current-layer="layer1"
     showgrid="false"
     units="in"
     inkscape:window-width="1680"
     inkscape:window-height="1002"
     inkscape:window-x="79"
     inkscape:window-y="0"
     inkscape:window-maximized="0"
     showguides="true"
     inkscape:guide-bbox="true">
    <sodipodi:guide
       orientation="1,0"
       position="1178.8977,1407.7366"
       id="guide11892" />
    <sodipodi:guide
       orientation="0,1"
       position="83.060109,907.9235"
       id="guide11963" />
  </sodipodi:namedview>
  <defs
     id="defs11106" />
  <metadata
     id="metadata11109">
    <rdf:RDF>
      <cc:Work
         rdf:about="">
        <dc:format>image/svg+xml</dc:format>
        <dc:type
           rdf:resource="http://purl.org/dc/dcmitype/StillImage" />
        <dc:title />
      </cc:Work>
    </rdf:RDF>
  </metadata>
  <g
     transform="translate(0,477.6403)"
     id="layer1"
     inkscape:groupmode="layer"
     inkscape:label="Layer 1">
    <g
       id="g11982">
      <g
         transform="translate(-466.41582,62.44898)"
         style="stroke:#ff0000;stroke-opacity:1"
         id="g11190">
        <path
           inkscape:connector-curvature="0"
           id="path11136"
           inkscape:label="part"
           style="fill:none;stroke:#ff0000;stroke-opacity:1"
           d="m 492.51969,418.11024 44.48622,0 0,-17.71654 42.83858,0 0,17.71654 44.32677,0 0,-17.71654 42.83858,0 0,17.71654 44.32677,0 0,-17.71654 42.83859,0 0,17.71654 44.32677,0 0,-17.71654 42.83858,0 0,17.71654 44.48622,0" />
        <path
           inkscape:connector-curvature="0"
           id="path11138"
           inkscape:label="part"
           style="fill:none;stroke:#ff0000;stroke-opacity:1"
           d="m 885.82677,418.11024 0,27.91535 -17.71653,0 0,42.20079 17.71653,0 0,45.79134 -17.71653,0 0,42.20078 17.71653,0 0,45.79134 -17.71653,0 0,42.20079 17.71653,0 0,45.79134 -17.71653,0 0,42.20079 17.71653,0 0,45.79133 -17.71653,0 0,42.20079 17.71653,0 0,27.91536" />
        <path
           inkscape:connector-curvature="0"
           id="path11140"
           inkscape:label="part"
           style="fill:none;stroke:#ff0000;stroke-opacity:1"
           d="m 885.82677,868.11024 -44.48622,0 0,17.71653 -42.83858,0 0,-17.71653 -44.32677,0 0,17.71653 -42.83859,0 0,-17.71653 -44.32677,0 0,17.71653 -42.83858,0 0,-17.71653 -44.32677,0 0,17.71653 -42.83858,0 0,-17.71653 -44.48622,0" />
        <path
           inkscape:connector-curvature="0"
           id="path11142"
           inkscape:label="part"
           style="fill:none;stroke:#ff0000;stroke-opacity:1"
           d="m 492.51969,868.11024 0,-27.91536 17.71653,0 0,-42.20079 -17.71653,0 0,-45.79133 17.71653,0 0,-42.20079 -17.71653,0 0,-45.79134 17.71653,0 0,-42.20079 -17.71653,0 0,-45.79134 17.71653,0 0,-42.20078 -17.71653,0 0,-45.79134 17.71653,0 0,-42.20079 -17.71653,0 0,-27.91535" />
      </g>
      <rect
         transform="translate(0,-477.6403)"
         y="981.61987"
         x="66.352043"
         height="402.01532"
         width="312.2449"
         id="rect11788"
         style="fill:#000000;fill-opacity:0;stroke:#ff0000;stroke-width:0.35433072;stroke-miterlimit:4;stroke-opacity:1;stroke-dasharray:none" />
    </g>
    <g
       id="g11802">
      <g
         transform="translate(-482.02806,-460.56122)"
         style="stroke:#ff0000;stroke-opacity:1"
         id="g11184">
        <path
           inkscape:connector-curvature="0"
           id="path11152"
           inkscape:label="part"
           style="fill:none;stroke:#ff0000;stroke-opacity:1"
           d="m 492.51969,3.5433071 44.80511,0 0,17.7165359 42.20079,0 0,-17.7165359 44.96457,0 0,17.7165359 42.20078,0 0,-17.7165359 44.96457,0 0,17.7165359 42.20079,0 0,-17.7165359 44.96457,0 0,17.7165359 42.20078,0 0,-17.7165359 44.80512,0" />
        <path
           inkscape:connector-curvature="0"
           id="path11154"
           inkscape:label="part"
           style="fill:none;stroke:#ff0000;stroke-opacity:1"
           d="m 885.82677,3.5433071 0,44.8051179 -17.71653,0 0,42.200788 17.71653,0 0,44.964567 -17.71653,0 0,42.20079 17.71653,0 0,44.96456 -17.71653,0 0,42.20079 17.71653,0 0,44.96457 -17.71653,0 0,42.20079 17.71653,0 0,44.80511" />
        <path
           inkscape:connector-curvature="0"
           id="path11156"
           inkscape:label="part"
           style="fill:none;stroke:#ff0000;stroke-opacity:1"
           d="m 885.82677,396.85039 -44.80512,0 0,-17.71653 -42.20078,0 0,17.71653 -44.96457,0 0,-17.71653 -42.20079,0 0,17.71653 -44.96457,0 0,-17.71653 -42.20078,0 0,17.71653 -44.96457,0 0,-17.71653 -42.20079,0 0,17.71653 -44.80511,0" />
        <path
           inkscape:connector-curvature="0"
           id="path11158"
           inkscape:label="part"
           style="fill:none;stroke:#ff0000;stroke-opacity:1"
           d="m 492.51969,396.85039 0,-44.80511 17.71653,0 0,-42.20079 -17.71653,0 0,-44.96457 17.71653,0 0,-42.20079 -17.71653,0 0,-44.96456 17.71653,0 0,-42.20079 -17.71653,0 0,-44.964567 17.71653,0 0,-42.200788 -17.71653,0 0,-44.8051179" />
      </g>
      <rect
         y="-147.88011"
         x="56.836735"
         height="45"
         width="45"
         id="rect11800"
         style="fill:#000000;fill-opacity:0;stroke:#ff0000;stroke-width:0.35433072;stroke-miterlimit:4;stroke-opacity:1;stroke-dasharray:none" />
    </g>
    <g
       id="g11810"
       transform="translate(407.8699,-1.9515306)">
      <g
         id="g11812"
         style="stroke:#ff0000;stroke-opacity:1"
         transform="translate(-482.02806,-460.56122)">
        <path
           d="m 492.51969,3.5433071 44.80511,0 0,17.7165359 42.20079,0 0,-17.7165359 44.96457,0 0,17.7165359 42.20078,0 0,-17.7165359 44.96457,0 0,17.7165359 42.20079,0 0,-17.7165359 44.96457,0 0,17.7165359 42.20078,0 0,-17.7165359 44.80512,0"
           style="fill:none;stroke:#ff0000;stroke-opacity:1"
           inkscape:label="part"
           id="path11814"
           inkscape:connector-curvature="0" />
        <path
           d="m 885.82677,3.5433071 0,44.8051179 -17.71653,0 0,42.200788 17.71653,0 0,44.964567 -17.71653,0 0,42.20079 17.71653,0 0,44.96456 -17.71653,0 0,42.20079 17.71653,0 0,44.96457 -17.71653,0 0,42.20079 17.71653,0 0,44.80511"
           style="fill:none;stroke:#ff0000;stroke-opacity:1"
           inkscape:label="part"
           id="path11816"
           inkscape:connector-curvature="0" />
        <path
           d="m 885.82677,396.85039 -44.80512,0 0,-17.71653 -42.20078,0 0,17.71653 -44.96457,0 0,-17.71653 -42.20079,0 0,17.71653 -44.96457,0 0,-17.71653 -42.20078,0 0,17.71653 -44.96457,0 0,-17.71653 -42.20079,0 0,17.71653 -44.80511,0"
           style="fill:none;stroke:#ff0000;stroke-opacity:1"
           inkscape:label="part"
           id="path11818"
           inkscape:connector-curvature="0" />
        <path
           d="m 492.51969,396.85039 0,-44.80511 17.71653,0 0,-42.20079 -17.71653,0 0,-44.96457 17.71653,0 0,-42.20079 -17.71653,0 0,-44.96456 17.71653,0 0,-42.20079 -17.71653,0 0,-44.964567 17.71653,0 0,-42.200788 -17.71653,0 0,-44.8051179"
           style="fill:none;stroke:#ff0000;stroke-opacity:1"
           inkscape:label="part"
           id="path11820"
           inkscape:connector-curvature="0" />
      </g>
      <rect
         style="fill:#000000;fill-opacity:0;stroke:#ff0000;stroke-width:0.35433072;stroke-miterlimit:4;stroke-opacity:1;stroke-dasharray:none"
         id="rect11822"
         width="45"
         height="45"
         x="56.836735"
         y="-147.88011" />
    </g>
    <path
       inkscape:connector-curvature="0"
       id="path11828"
       inkscape:label="part"
       style="fill:none;stroke:#ff0000;stroke-opacity:1"
       d="m 874.9396,-441.25291 42.20079,0 0,-17.71653 44.96457,0 0,17.71653 42.20074,0 0,-17.71653 44.9646,0 0,17.71653 42.2008,0 0,-17.71653 44.9646,0 0,17.71653 42.2008,0"
       sodipodi:nodetypes="cccccccccccccc" />
    <path
       inkscape:connector-curvature="0"
       id="path11832"
       inkscape:label="part"
       style="fill:none;stroke:#ff0000;stroke-opacity:1"
       d="m 1178.6365,-83.37889 -42.2008,0 0,17.71653 -44.9646,0 0,-17.71653 -42.2008,0 0,17.71653 -44.9646,0 0,-17.71653 -42.20074,0 0,17.71653 -44.96457,0 0,-17.71653 -42.20079,0"
       sodipodi:nodetypes="cccccccccccccc" />
    <rect
       style="fill:#000000;fill-opacity:0;stroke:#ff0000;stroke-width:0.35433072;stroke-miterlimit:4;stroke-opacity:1;stroke-dasharray:none"
       id="rect11836"
       width="45"
       height="45"
       x="890.47961"
       y="-149.83165" />
    <g
       transform="translate(-1281.7123,-528.28068)"
       id="g8977">
      <rect
         y="146.71478"
         x="1797.8691"
         height="238.5"
         width="197.71654"
         id="rect8906"
         style="fill:#000000;fill-opacity:0;stroke:#00fe00;stroke-width:0.35433072;stroke-miterlimit:4;stroke-opacity:1;stroke-dasharray:none" />
      <path
         transform="matrix(0.32820556,0,0,0.32820556,1134.0538,211.80397)"
         d="m 2341.4039,502.487 c 0,9.51902 -7.7167,17.2357 -17.2357,17.2357 -9.519,0 -17.2357,-7.71668 -17.2357,-17.2357 0,-9.51902 7.7167,-17.2357 17.2357,-17.2357 9.519,0 17.2357,7.71668 17.2357,17.2357 z"
         sodipodi:ry="17.235703"
         sodipodi:rx="17.235703"
         sodipodi:cy="502.487"
         sodipodi:cx="2324.1682"
         id="path8908"
         style="fill:#000000;fill-opacity:0;stroke:#ff0000;stroke-width:0.35433072;stroke-miterlimit:4;stroke-opacity:1;stroke-dasharray:none"
         sodipodi:type="arc" />
      <path
         sodipodi:type="arc"
         style="fill:#000000;fill-opacity:0;stroke:#ff0000;stroke-width:0.35433072;stroke-miterlimit:4;stroke-opacity:1;stroke-dasharray:none"
         id="path8914"
         sodipodi:cx="2324.1682"
         sodipodi:cy="502.487"
         sodipodi:rx="17.235703"
         sodipodi:ry="17.235703"
         d="m 2341.4039,502.487 c 0,9.51902 -7.7167,17.2357 -17.2357,17.2357 -9.519,0 -17.2357,-7.71668 -17.2357,-17.2357 0,-9.51902 7.7167,-17.2357 17.2357,-17.2357 9.519,0 17.2357,7.71668 17.2357,17.2357 z"
         transform="matrix(0.32820556,0,0,0.32820556,1224.3103,101.474)" />
      <path
         sodipodi:type="arc"
         style="fill:#000000;fill-opacity:0;stroke:#ff0000;stroke-width:0.35433072;stroke-miterlimit:4;stroke-opacity:1;stroke-dasharray:none"
         id="path8916"
         sodipodi:cx="2324.1682"
         sodipodi:cy="502.487"
         sodipodi:rx="17.235703"
         sodipodi:ry="17.235703"
         d="m 2341.4039,502.487 c 0,9.51902 -7.7167,17.2357 -17.2357,17.2357 -9.519,0 -17.2357,-7.71668 -17.2357,-17.2357 0,-9.51902 7.7167,-17.2357 17.2357,-17.2357 9.519,0 17.2357,7.71668 17.2357,17.2357 z"
         transform="matrix(0.32820556,0,0,0.32820556,1042.6351,101.04187)" />
      <path
         transform="matrix(0.32820556,0,0,0.32820556,1133.7107,-9.93238)"
         d="m 2341.4039,502.487 c 0,9.51902 -7.7167,17.2357 -17.2357,17.2357 -9.519,0 -17.2357,-7.71668 -17.2357,-17.2357 0,-9.51902 7.7167,-17.2357 17.2357,-17.2357 9.519,0 17.2357,7.71668 17.2357,17.2357 z"
         sodipodi:ry="17.235703"
         sodipodi:rx="17.235703"
         sodipodi:cy="502.487"
         sodipodi:cx="2324.1682"
         id="path8922"
         style="fill:#000000;fill-opacity:0;stroke:#ff0000;stroke-width:0.35433072;stroke-miterlimit:4;stroke-opacity:1;stroke-dasharray:none"
         sodipodi:type="arc" />
      <rect
         style="fill:#000000;fill-opacity:0;stroke:#00fe00;stroke-width:0.30287683;stroke-miterlimit:4;stroke-opacity:1;stroke-dasharray:none"
         id="rect8960"
         width="166.30901"
         height="207.17151"
         x="1812.9974"
         y="162.51018" />
    </g>
    <g
       id="g11874"
       transform="translate(-915.55171,319.28683)">
      <rect
         style="fill:#000000;fill-opacity:0;stroke:#ff0000;stroke-width:0.35433072;stroke-miterlimit:4;stroke-opacity:1;stroke-dasharray:none"
         id="rect11876"
         width="197.71654"
         height="238.5"
         x="1797.8691"
         y="146.71478" />
      <path
         sodipodi:type="arc"
         style="fill:#000000;fill-opacity:0;stroke:#ff0000;stroke-width:0.35433072;stroke-miterlimit:4;stroke-opacity:1;stroke-dasharray:none"
         id="path11878"
         sodipodi:cx="2324.1682"
         sodipodi:cy="502.487"
         sodipodi:rx="17.235703"
         sodipodi:ry="17.235703"
         d="m 2341.4039,502.487 c 0,9.51902 -7.7167,17.2357 -17.2357,17.2357 -9.519,0 -17.2357,-7.71668 -17.2357,-17.2357 0,-9.51902 7.7167,-17.2357 17.2357,-17.2357 9.519,0 17.2357,7.71668 17.2357,17.2357 z"
         transform="matrix(0.32820556,0,0,0.32820556,1134.0538,211.80397)" />
      <path
         transform="matrix(0.32820556,0,0,0.32820556,1224.3103,101.474)"
         d="m 2341.4039,502.487 c 0,9.51902 -7.7167,17.2357 -17.2357,17.2357 -9.519,0 -17.2357,-7.71668 -17.2357,-17.2357 0,-9.51902 7.7167,-17.2357 17.2357,-17.2357 9.519,0 17.2357,7.71668 17.2357,17.2357 z"
         sodipodi:ry="17.235703"
         sodipodi:rx="17.235703"
         sodipodi:cy="502.487"
         sodipodi:cx="2324.1682"
         id="path11880"
         style="fill:#000000;fill-opacity:0;stroke:#ff0000;stroke-width:0.35433072;stroke-miterlimit:4;stroke-opacity:1;stroke-dasharray:none"
         sodipodi:type="arc" />
      <path
         transform="matrix(0.32820556,0,0,0.32820556,1042.6351,101.04187)"
         d="m 2341.4039,502.487 c 0,9.51902 -7.7167,17.2357 -17.2357,17.2357 -9.519,0 -17.2357,-7.71668 -17.2357,-17.2357 0,-9.51902 7.7167,-17.2357 17.2357,-17.2357 9.519,0 17.2357,7.71668 17.2357,17.2357 z"
         sodipodi:ry="17.235703"
         sodipodi:rx="17.235703"
         sodipodi:cy="502.487"
         sodipodi:cx="2324.1682"
         id="path11882"
         style="fill:#000000;fill-opacity:0;stroke:#ff0000;stroke-width:0.35433072;stroke-miterlimit:4;stroke-opacity:1;stroke-dasharray:none"
         sodipodi:type="arc" />
      <path
         sodipodi:type="arc"
         style="fill:#000000;fill-opacity:0;stroke:#ff0000;stroke-width:0.35433072;stroke-miterlimit:4;stroke-opacity:1;stroke-dasharray:none"
         id="path11884"
         sodipodi:cx="2324.1682"
         sodipodi:cy="502.487"
         sodipodi:rx="17.235703"
         sodipodi:ry="17.235703"
         d="m 2341.4039,502.487 c 0,9.51902 -7.7167,17.2357 -17.2357,17.2357 -9.519,0 -17.2357,-7.71668 -17.2357,-17.2357 0,-9.51902 7.7167,-17.2357 17.2357,-17.2357 9.519,0 17.2357,7.71668 17.2357,17.2357 z"
         transform="matrix(0.32820556,0,0,0.32820556,1133.7107,-9.93238)" />
      <rect
         y="162.51018"
         x="1812.9974"
         height="207.17151"
         width="166.30901"
         id="rect11886"
         style="fill:#000000;fill-opacity:0;stroke:#00fe00;stroke-width:0.30287683;stroke-miterlimit:4;stroke-opacity:1;stroke-dasharray:none" />
    </g>
    <path
       style="fill:none;stroke:#ff0000;stroke-width:1px;stroke-linecap:butt;stroke-linejoin:miter;stroke-opacity:1"
       d="m 874.61737,36.260158 0,358.095212"
       id="path11888"
       inkscape:connector-curvature="0"
       transform="translate(0,-477.6403)" />
    <path
       inkscape:connector-curvature="0"
       id="path11890"
       d="m 1179.3889,-441.38014 0,358.09521"
       style="fill:none;stroke:#ff0000;stroke-width:1px;stroke-linecap:butt;stroke-linejoin:miter;stroke-opacity:1" />
    <g
       id="g11965">
      <g
         style="stroke:#ff0000;stroke-opacity:1"
         id="g11178">
        <path
           id="path11144"
           inkscape:label="part"
           style="stroke:#ff0000;fill:none;stroke-opacity:1"
           d="M 21.2598425196,21.2598425196 L 48.8562992094,21.2598425196 L 48.8562992094,3.5433070866 L 91.6948818924,3.5433070866 L 91.6948818924,21.2598425196 L 136.848425193,21.2598425196 L 136.848425193,3.5433070866 L 179.687007876,3.5433070866 L 179.687007876,21.2598425196 L 224.840551177,21.2598425196 L 224.840551177,3.5433070866 L 267.67913386,3.5433070866 L 267.67913386,21.2598425196 L 312.832677161,21.2598425196 L 312.832677161,3.5433070866 L 355.671259844,3.5433070866 L 355.671259844,21.2598425196 L 400.824803145,21.2598425196 L 400.824803145,3.5433070866 L 443.663385828,3.5433070866 L 443.663385828,21.2598425196 L 471.259842518,21.2598425196 " />
        <path
           id="path11146"
           inkscape:label="part"
           style="stroke:#ff0000;fill:none;stroke-opacity:1"
           d="M 471.259842518,21.2598425196 L 471.259842518,48.0295275558 L 488.976377951,48.0295275558 L 488.976377951,90.8681102389 L 471.259842518,90.8681102389 L 471.259842518,135.194881886 L 488.976377951,135.194881886 L 488.976377951,178.033464569 L 471.259842518,178.033464569 L 471.259842518,222.360236217 L 488.976377951,222.360236217 L 488.976377951,265.1988189 L 471.259842518,265.1988189 L 471.259842518,309.525590547 L 488.976377951,309.525590547 L 488.976377951,352.36417323 L 471.259842518,352.36417323 L 471.259842518,379.133858266 " />
        <path
           id="path11148"
           inkscape:label="part"
           style="stroke:#ff0000;fill:none;stroke-opacity:1"
           d="M 471.259842518,379.133858266 L 443.663385828,379.133858266 L 443.663385828,396.850393699 L 400.824803145,396.850393699 L 400.824803145,379.133858266 L 355.671259844,379.133858266 L 355.671259844,396.850393699 L 312.832677161,396.850393699 L 312.832677161,379.133858266 L 267.67913386,379.133858266 L 267.67913386,396.850393699 L 224.840551177,396.850393699 L 224.840551177,379.133858266 L 179.687007876,379.133858266 L 179.687007876,396.850393699 L 136.848425193,396.850393699 L 136.848425193,379.133858266 L 91.6948818924,379.133858266 L 91.6948818924,396.850393699 L 48.8562992094,396.850393699 L 48.8562992094,379.133858266 L 21.2598425196,379.133858266 " />
        <path
           id="path11150"
           inkscape:label="part"
           style="stroke:#ff0000;fill:none;stroke-opacity:1"
           d="M 21.2598425196,379.133858266 L 21.2598425196,352.36417323 L 3.5433070866,352.36417323 L 3.5433070866,309.525590547 L 21.2598425196,309.525590547 L 21.2598425196,265.1988189 L 3.5433070866,265.1988189 L 3.5433070866,222.360236217 L 21.2598425196,222.360236217 L 21.2598425196,178.033464569 L 3.5433070866,178.033464569 L 3.5433070866,135.194881886 L 21.2598425196,135.194881886 L 21.2598425196,90.8681102389 L 3.5433070866,90.8681102389 L 3.5433070866,48.0295275558 L 21.2598425196,48.0295275558 L 21.2598425196,21.2598425196 " />
      </g>
      <g
         id="g10998"
         transform="matrix(0,1,-1,0,144.12264,-368.80581)">
        <rect
           y="-137.38185"
           x="571.48938"
           height="70.489296"
           width="146.4183"
           id="rect11000"
           style="fill:#000000;fill-opacity:0;stroke:#ff0000;stroke-width:0.29108068;stroke-miterlimit:4;stroke-opacity:1;stroke-dasharray:none" />
        <path
           transform="matrix(0.46809619,0,0,0.95875123,384.27946,-4.6011488)"
           d="m 750.24143,-118.8011 c 0,3.22373 -5.35265,5.83708 -11.95548,5.83708 -6.60283,0 -11.95548,-2.61335 -11.95548,-5.83708 0,-3.22374 5.35265,-5.83709 11.95548,-5.83709 6.60283,0 11.95548,2.61335 11.95548,5.83709 z"
           sodipodi:ry="5.8370867"
           sodipodi:rx="11.955479"
           sodipodi:cy="-118.8011"
           sodipodi:cx="738.28595"
           id="path11002"
           style="fill:#000000;fill-opacity:0;stroke:#ff0000;stroke-width:0.35433072;stroke-miterlimit:4;stroke-opacity:1;stroke-dasharray:none"
           sodipodi:type="arc" />
        <path
           sodipodi:type="arc"
           style="fill:#000000;fill-opacity:0;stroke:#ff0000;stroke-width:0.35433072;stroke-miterlimit:4;stroke-opacity:1;stroke-dasharray:none"
           id="path11004"
           sodipodi:cx="738.28595"
           sodipodi:cy="-118.8011"
           sodipodi:rx="11.955479"
           sodipodi:ry="5.8370867"
           d="m 750.24143,-118.8011 c 0,3.22373 -5.35265,5.83708 -11.95548,5.83708 -6.60283,0 -11.95548,-2.61335 -11.95548,-5.83708 0,-3.22374 5.35265,-5.83709 11.95548,-5.83709 6.60283,0 11.95548,2.61335 11.95548,5.83709 z"
           transform="matrix(0.46809619,0,0,0.95875123,384.27946,27.398851)" />
        <path
           transform="matrix(0.46809619,0,0,0.95875123,214.40403,28.609924)"
           d="m 750.24143,-118.8011 c 0,3.22373 -5.35265,5.83708 -11.95548,5.83708 -6.60283,0 -11.95548,-2.61335 -11.95548,-5.83708 0,-3.22374 5.35265,-5.83709 11.95548,-5.83709 6.60283,0 11.95548,2.61335 11.95548,5.83709 z"
           sodipodi:ry="5.8370867"
           sodipodi:rx="11.955479"
           sodipodi:cy="-118.8011"
           sodipodi:cx="738.28595"
           id="path11006"
           style="fill:#000000;fill-opacity:0;stroke:#ff0000;stroke-width:0.35433072;stroke-miterlimit:4;stroke-opacity:1;stroke-dasharray:none"
           sodipodi:type="arc" />
        <path
           sodipodi:type="arc"
           style="fill:#000000;fill-opacity:0;stroke:#ff0000;stroke-width:0.35433072;stroke-miterlimit:4;stroke-opacity:1;stroke-dasharray:none"
           id="path11008"
           sodipodi:cx="738.28595"
           sodipodi:cy="-118.8011"
           sodipodi:rx="11.955479"
           sodipodi:ry="5.8370867"
           d="m 750.24143,-118.8011 c 0,3.22373 -5.35265,5.83708 -11.95548,5.83708 -6.60283,0 -11.95548,-2.61335 -11.95548,-5.83708 0,-3.22374 5.35265,-5.83709 11.95548,-5.83709 6.60283,0 11.95548,2.61335 11.95548,5.83709 z"
           transform="matrix(0.46809619,0,0,0.95875123,214.23102,-5.9921521)" />
      </g>
      <rect
         transform="translate(0,-477.6403)"
         y="622.62292"
         x="92.349724"
         height="18.032787"
         width="42.349728"
         id="rect11955"
         style="fill:#000000;fill-opacity:0;stroke:#ff0000;stroke-width:0.35433072;stroke-miterlimit:4;stroke-opacity:1;stroke-dasharray:none" />
      <rect
         style="fill:#000000;fill-opacity:0;stroke:#ff0000;stroke-width:0.35433072;stroke-miterlimit:4;stroke-opacity:1;stroke-dasharray:none"
         id="rect11957"
         width="42.349728"
         height="18.032787"
         x="179.23497"
         y="144.98262" />
      <rect
         y="144.43617"
         x="266.66666"
         height="18.032787"
         width="42.349728"
         id="rect11959"
         style="fill:#000000;fill-opacity:0;stroke:#ff0000;stroke-width:0.35433072;stroke-miterlimit:4;stroke-opacity:1;stroke-dasharray:none" />
      <rect
         style="fill:#000000;fill-opacity:0;stroke:#ff0000;stroke-width:0.35433072;stroke-miterlimit:4;stroke-opacity:1;stroke-dasharray:none"
         id="rect11961"
         width="42.349728"
         height="18.032787"
         x="354.09836"
         y="144.43617" />
    </g>
    <g
       id="g11990"
       transform="translate(491.78571,0)">
      <g
         id="g11992"
         style="stroke:#ff0000;stroke-opacity:1">
        <path
           d="m 21.259843,21.259843 27.596456,0 0,-17.7165359 42.838583,0 0,17.7165359 45.153548,0 0,-17.7165359 42.83858,0 0,17.7165359 45.15354,0 0,-17.7165359 42.83858,0 0,17.7165359 45.15355,0 0,-17.7165359 42.83858,0 0,17.7165359 45.15354,0 0,-17.7165359 42.83859,0 0,17.7165359 27.59645,0"
           style="fill:none;stroke:#ff0000;stroke-opacity:1"
           inkscape:label="part"
           id="path11994"
           inkscape:connector-curvature="0" />
        <path
           d="m 471.25984,21.259843 0,26.769685 17.71654,0 0,42.838582 -17.71654,0 0,44.32677 17.71654,0 0,42.83858 -17.71654,0 0,44.32678 17.71654,0 0,42.83858 -17.71654,0 0,44.32677 17.71654,0 0,42.83858 -17.71654,0 0,26.76969"
           style="fill:none;stroke:#ff0000;stroke-opacity:1"
           inkscape:label="part"
           id="path11996"
           inkscape:connector-curvature="0" />
        <path
           d="m 471.25984,379.13386 -27.59645,0 0,17.71653 -42.83859,0 0,-17.71653 -45.15354,0 0,17.71653 -42.83858,0 0,-17.71653 -45.15355,0 0,17.71653 -42.83858,0 0,-17.71653 -45.15354,0 0,17.71653 -42.83858,0 0,-17.71653 -45.153548,0 0,17.71653 -42.838583,0 0,-17.71653 -27.596456,0"
           style="fill:none;stroke:#ff0000;stroke-opacity:1"
           inkscape:label="part"
           id="path11998"
           inkscape:connector-curvature="0" />
        <path
           d="m 21.259843,379.13386 0,-26.76969 -17.7165359,0 0,-42.83858 17.7165359,0 0,-44.32677 -17.7165359,0 0,-42.83858 17.7165359,0 0,-44.32678 -17.7165359,0 0,-42.83858 17.7165359,0 0,-44.32677 -17.7165359,0 0,-42.838582 17.7165359,0 0,-26.769685"
           style="fill:none;stroke:#ff0000;stroke-opacity:1"
           inkscape:label="part"
           id="path12000"
           inkscape:connector-curvature="0" />
      </g>
      <g
         transform="matrix(0,1,-1,0,144.12264,-368.80581)"
         id="g12002">
        <rect
           style="fill:#000000;fill-opacity:0;stroke:#ff0000;stroke-width:0.29108068;stroke-miterlimit:4;stroke-opacity:1;stroke-dasharray:none"
           id="rect12004"
           width="146.4183"
           height="70.489296"
           x="571.48938"
           y="-137.38185" />
        <path
           sodipodi:type="arc"
           style="fill:#000000;fill-opacity:0;stroke:#ff0000;stroke-width:0.35433072;stroke-miterlimit:4;stroke-opacity:1;stroke-dasharray:none"
           id="path12006"
           sodipodi:cx="738.28595"
           sodipodi:cy="-118.8011"
           sodipodi:rx="11.955479"
           sodipodi:ry="5.8370867"
           d="m 750.24143,-118.8011 c 0,3.22373 -5.35265,5.83708 -11.95548,5.83708 -6.60283,0 -11.95548,-2.61335 -11.95548,-5.83708 0,-3.22374 5.35265,-5.83709 11.95548,-5.83709 6.60283,0 11.95548,2.61335 11.95548,5.83709 z"
           transform="matrix(0.46809619,0,0,0.95875123,384.27946,-4.6011488)" />
        <path
           transform="matrix(0.46809619,0,0,0.95875123,384.27946,27.398851)"
           d="m 750.24143,-118.8011 c 0,3.22373 -5.35265,5.83708 -11.95548,5.83708 -6.60283,0 -11.95548,-2.61335 -11.95548,-5.83708 0,-3.22374 5.35265,-5.83709 11.95548,-5.83709 6.60283,0 11.95548,2.61335 11.95548,5.83709 z"
           sodipodi:ry="5.8370867"
           sodipodi:rx="11.955479"
           sodipodi:cy="-118.8011"
           sodipodi:cx="738.28595"
           id="path12008"
           style="fill:#000000;fill-opacity:0;stroke:#ff0000;stroke-width:0.35433072;stroke-miterlimit:4;stroke-opacity:1;stroke-dasharray:none"
           sodipodi:type="arc" />
        <path
           sodipodi:type="arc"
           style="fill:#000000;fill-opacity:0;stroke:#ff0000;stroke-width:0.35433072;stroke-miterlimit:4;stroke-opacity:1;stroke-dasharray:none"
           id="path12010"
           sodipodi:cx="738.28595"
           sodipodi:cy="-118.8011"
           sodipodi:rx="11.955479"
           sodipodi:ry="5.8370867"
           d="m 750.24143,-118.8011 c 0,3.22373 -5.35265,5.83708 -11.95548,5.83708 -6.60283,0 -11.95548,-2.61335 -11.95548,-5.83708 0,-3.22374 5.35265,-5.83709 11.95548,-5.83709 6.60283,0 11.95548,2.61335 11.95548,5.83709 z"
           transform="matrix(0.46809619,0,0,0.95875123,214.40403,28.609924)" />
        <path
           transform="matrix(0.46809619,0,0,0.95875123,214.23102,-5.9921521)"
           d="m 750.24143,-118.8011 c 0,3.22373 -5.35265,5.83708 -11.95548,5.83708 -6.60283,0 -11.95548,-2.61335 -11.95548,-5.83708 0,-3.22374 5.35265,-5.83709 11.95548,-5.83709 6.60283,0 11.95548,2.61335 11.95548,5.83709 z"
           sodipodi:ry="5.8370867"
           sodipodi:rx="11.955479"
           sodipodi:cy="-118.8011"
           sodipodi:cx="738.28595"
           id="path12012"
           style="fill:#000000;fill-opacity:0;stroke:#ff0000;stroke-width:0.35433072;stroke-miterlimit:4;stroke-opacity:1;stroke-dasharray:none"
           sodipodi:type="arc" />
      </g>
      <rect
         style="fill:#000000;fill-opacity:0;stroke:#ff0000;stroke-width:0.35433072;stroke-miterlimit:4;stroke-opacity:1;stroke-dasharray:none"
         id="rect12014"
         width="42.349728"
         height="18.032787"
         x="92.349724"
         y="622.62292"
         transform="translate(0,-477.6403)" />
      <rect
         y="144.98262"
         x="179.23497"
         height="18.032787"
         width="42.349728"
         id="rect12016"
         style="fill:#000000;fill-opacity:0;stroke:#ff0000;stroke-width:0.35433072;stroke-miterlimit:4;stroke-opacity:1;stroke-dasharray:none" />
      <rect
         style="fill:#000000;fill-opacity:0;stroke:#ff0000;stroke-width:0.35433072;stroke-miterlimit:4;stroke-opacity:1;stroke-dasharray:none"
         id="rect12018"
         width="42.349728"
         height="18.032787"
         x="266.66666"
         y="144.43617" />
      <rect
         y="144.43617"
         x="354.09836"
         height="18.032787"
         width="42.349728"
         id="rect12020"
         style="fill:#000000;fill-opacity:0;stroke:#ff0000;stroke-width:0.35433072;stroke-miterlimit:4;stroke-opacity:1;stroke-dasharray:none" />
    </g>
    <g
       id="g12022"
       transform="translate(425.43367,0)">
      <g
         id="g12024"
         style="stroke:#ff0000;stroke-opacity:1"
         transform="translate(-466.41582,62.44898)">
        <path
           d="m 492.51969,418.11024 44.48622,0 0,-17.71654 42.83858,0 0,17.71654 44.32677,0 0,-17.71654 42.83858,0 0,17.71654 44.32677,0 0,-17.71654 42.83859,0 0,17.71654 44.32677,0 0,-17.71654 42.83858,0 0,17.71654 44.48622,0"
           style="fill:none;stroke:#ff0000;stroke-opacity:1"
           inkscape:label="part"
           id="path12026"
           inkscape:connector-curvature="0" />
        <path
           d="m 885.82677,418.11024 0,27.91535 -17.71653,0 0,42.20079 17.71653,0 0,45.79134 -17.71653,0 0,42.20078 17.71653,0 0,45.79134 -17.71653,0 0,42.20079 17.71653,0 0,45.79134 -17.71653,0 0,42.20079 17.71653,0 0,45.79133 -17.71653,0 0,42.20079 17.71653,0 0,27.91536"
           style="fill:none;stroke:#ff0000;stroke-opacity:1"
           inkscape:label="part"
           id="path12028"
           inkscape:connector-curvature="0" />
        <path
           d="m 885.82677,868.11024 -44.48622,0 0,17.71653 -42.83858,0 0,-17.71653 -44.32677,0 0,17.71653 -42.83859,0 0,-17.71653 -44.32677,0 0,17.71653 -42.83858,0 0,-17.71653 -44.32677,0 0,17.71653 -42.83858,0 0,-17.71653 -44.48622,0"
           style="fill:none;stroke:#ff0000;stroke-opacity:1"
           inkscape:label="part"
           id="path12030"
           inkscape:connector-curvature="0" />
        <path
           d="m 492.51969,868.11024 0,-27.91536 17.71653,0 0,-42.20079 -17.71653,0 0,-45.79133 17.71653,0 0,-42.20079 -17.71653,0 0,-45.79134 17.71653,0 0,-42.20079 -17.71653,0 0,-45.79134 17.71653,0 0,-42.20078 -17.71653,0 0,-45.79134 17.71653,0 0,-42.20079 -17.71653,0 0,-27.91535"
           style="fill:none;stroke:#ff0000;stroke-opacity:1"
           inkscape:label="part"
           id="path12032"
           inkscape:connector-curvature="0" />
      </g>
      <rect
         style="fill:#000000;fill-opacity:0;stroke:#ff0000;stroke-width:0.35433072;stroke-miterlimit:4;stroke-opacity:1;stroke-dasharray:none"
         id="rect12034"
         width="312.2449"
         height="402.01532"
         x="66.352043"
         y="981.61987"
         transform="translate(0,-477.6403)" />
    </g>
  </g>
  <g
     id="g11160"
     inkscape:groupmode="layer"
     inkscape:label="newlayer" />
</svg>
