<?xml version="1.0" encoding="UTF-8" standalone="no"?>
<!-- Created with Inkscape (http://www.inkscape.org/) -->

<svg
   xmlns:dc="http://purl.org/dc/elements/1.1/"
   xmlns:cc="http://creativecommons.org/ns#"
   xmlns:rdf="http://www.w3.org/1999/02/22-rdf-syntax-ns#"
   xmlns:svg="http://www.w3.org/2000/svg"
   xmlns="http://www.w3.org/2000/svg"
   xmlns:sodipodi="http://sodipodi.sourceforge.net/DTD/sodipodi-0.dtd"
   xmlns:inkscape="http://www.inkscape.org/namespaces/inkscape"
   width="2160"
   height="1530"
   id="svg11104"
   version="1.1"
   inkscape:version="0.48.2 r9819"
   sodipodi:docname="DoubleBot2.svg">
  <sodipodi:namedview
     id="base"
     pagecolor="#ffffff"
     bordercolor="#666666"
     borderopacity="1.0"
     inkscape:pageopacity="0.0"
     inkscape:pageshadow="2"
     inkscape:zoom="0.5124183"
     inkscape:cx="1080"
     inkscape:cy="765"
     inkscape:document-units="px"
     inkscape:current-layer="layer1"
     showgrid="false"
     units="in"
     inkscape:window-width="1680"
     inkscape:window-height="1002"
     inkscape:window-x="0"
     inkscape:window-y="0"
     inkscape:window-maximized="1"
     showguides="true"
     inkscape:guide-bbox="true">
    <sodipodi:guide
       orientation="1,0"
       position="1178.8977,1407.7366"
       id="guide11892" />
  </sodipodi:namedview>
  <defs
     id="defs11106" />
  <metadata
     id="metadata11109">
    <rdf:RDF>
      <cc:Work
         rdf:about="">
        <dc:format>image/svg+xml</dc:format>
        <dc:type
           rdf:resource="http://purl.org/dc/dcmitype/StillImage" />
        <dc:title />
      </cc:Work>
    </rdf:RDF>
  </metadata>
  <g
     transform="translate(0,477.6403)"
     id="layer1"
     inkscape:groupmode="layer"
     inkscape:label="Layer 1">
    <g
       id="g11982">
      <g
         transform="translate(-466.41582,62.44898)"
         style="stroke:#ff0000;stroke-opacity:1"
         id="g11190">
        <path
           inkscape:connector-curvature="0"
           id="path11136"
           inkscape:label="part"
           style="fill:none;stroke:#ff0000;stroke-opacity:1"
           d="m 492.51969,418.11024 44.48622,0 0,-17.71654 42.83858,0 0,17.71654 44.32677,0 0,-17.71654 42.83858,0 0,17.71654 44.32677,0 0,-17.71654 42.83859,0 0,17.71654 44.32677,0 0,-17.71654 42.83858,0 0,17.71654 44.48622,0" />
        <path
           inkscape:connector-curvature="0"
           id="path11138"
           inkscape:label="part"
           style="fill:none;stroke:#ff0000;stroke-opacity:1"
           d="m 885.82677,418.11024 0,27.91535 -17.71653,0 0,42.20079 17.71653,0 0,45.79134 -17.71653,0 0,42.20078 17.71653,0 0,45.79134 -17.71653,0 0,42.20079 17.71653,0 0,45.79134 -17.71653,0 0,42.20079 17.71653,0 0,45.79133 -17.71653,0 0,42.20079 17.71653,0 0,27.91536" />
        <path
           inkscape:connector-curvature="0"
           id="path11140"
           inkscape:label="part"
           style="fill:none;stroke:#ff0000;stroke-opacity:1"
           d="m 885.82677,868.11024 -44.48622,0 0,17.71653 -42.83858,0 0,-17.71653 -44.32677,0 0,17.71653 -42.83859,0 0,-17.71653 -44.32677,0 0,17.71653 -42.83858,0 0,-17.71653 -44.32677,0 0,17.71653 -42.83858,0 0,-17.71653 -44.48622,0" />
        <path
           inkscape:connector-curvature="0"
           id="path11142"
           inkscape:label="part"
           style="fill:none;stroke:#ff0000;stroke-opacity:1"
           d="m 492.51969,868.11024 0,-27.91536 17.71653,0 0,-42.20079 -17.71653,0 0,-45.79133 17.71653,0 0,-42.20079 -17.71653,0 0,-45.79134 17.71653,0 0,-42.20079 -17.71653,0 0,-45.79134 17.71653,0 0,-42.20078 -17.71653,0 0,-45.79134 17.71653,0 0,-42.20079 -17.71653,0 0,-27.91535" />
      </g>
      <rect
         transform="translate(0,-477.6403)"
         y="981.61987"
         x="66.352043"
         height="402.01532"
         width="312.2449"
         id="rect11788"
         style="fill:#000000;fill-opacity:0;stroke:#ff0000;stroke-width:0.35433072;stroke-miterlimit:4;stroke-opacity:1;stroke-dasharray:none" />
    </g>
    <g
       id="g11802">
      <g
         transform="translate(-482.02806,-460.56122)"
         style="stroke:#ff0000;stroke-opacity:1"
         id="g11184">
        <path
           inkscape:connector-curvature="0"
           id="path11152"
           inkscape:label="part"
           style="fill:none;stroke:#ff0000;stroke-opacity:1"
           d="m 492.51969,3.5433071 44.80511,0 0,17.7165359 42.20079,0 0,-17.7165359 44.96457,0 0,17.7165359 42.20078,0 0,-17.7165359 44.96457,0 0,17.7165359 42.20079,0 0,-17.7165359 44.96457,0 0,17.7165359 42.20078,0 0,-17.7165359 44.80512,0" />
        <path
           inkscape:connector-curvature="0"
           id="path11154"
           inkscape:label="part"
           style="fill:none;stroke:#ff0000;stroke-opacity:1"
           d="m 885.82677,3.5433071 0,44.8051179 -17.71653,0 0,42.200788 17.71653,0 0,44.964567 -17.71653,0 0,42.20079 17.71653,0 0,44.96456 -17.71653,0 0,42.20079 17.71653,0 0,44.96457 -17.71653,0 0,42.20079 17.71653,0 0,44.80511" />
        <path
           inkscape:connector-curvature="0"
           id="path11156"
           inkscape:label="part"
           style="fill:none;stroke:#ff0000;stroke-opacity:1"
           d="m 885.82677,396.85039 -44.80512,0 0,-17.71653 -42.20078,0 0,17.71653 -44.96457,0 0,-17.71653 -42.20079,0 0,17.71653 -44.96457,0 0,-17.71653 -42.20078,0 0,17.71653 -44.96457,0 0,-17.71653 -42.20079,0 0,17.71653 -44.80511,0" />
        <path
           inkscape:connector-curvature="0"
           id="path11158"
           inkscape:label="part"
           style="fill:none;stroke:#ff0000;stroke-opacity:1"
           d="m 492.51969,396.85039 0,-44.80511 17.71653,0 0,-42.20079 -17.71653,0 0,-44.96457 17.71653,0 0,-42.20079 -17.71653,0 0,-44.96456 17.71653,0 0,-42.20079 -17.71653,0 0,-44.964567 17.71653,0 0,-42.200788 -17.71653,0 0,-44.8051179" />
      </g>
      <rect
         y="-147.88011"
         x="56.836735"
         height="45"
         width="45"
         id="rect11800"
         style="fill:#000000;fill-opacity:0;stroke:#ff0000;stroke-width:0.35433072;stroke-miterlimit:4;stroke-opacity:1;stroke-dasharray:none" />
    </g>
    <g
       id="g11810"
       transform="translate(407.8699,-1.9515306)">
      <g
         id="g11812"
         style="stroke:#ff0000;stroke-opacity:1"
         transform="translate(-482.02806,-460.56122)">
        <path
           d="m 492.51969,3.5433071 44.80511,0 0,17.7165359 42.20079,0 0,-17.7165359 44.96457,0 0,17.7165359 42.20078,0 0,-17.7165359 44.96457,0 0,17.7165359 42.20079,0 0,-17.7165359 44.96457,0 0,17.7165359 42.20078,0 0,-17.7165359 44.80512,0"
           style="fill:none;stroke:#ff0000;stroke-opacity:1"
           inkscape:label="part"
           id="path11814"
           inkscape:connector-curvature="0" />
        <path
           d="m 885.82677,3.5433071 0,44.8051179 -17.71653,0 0,42.200788 17.71653,0 0,44.964567 -17.71653,0 0,42.20079 17.71653,0 0,44.96456 -17.71653,0 0,42.20079 17.71653,0 0,44.96457 -17.71653,0 0,42.20079 17.71653,0 0,44.80511"
           style="fill:none;stroke:#ff0000;stroke-opacity:1"
           inkscape:label="part"
           id="path11816"
           inkscape:connector-curvature="0" />
        <path
           d="m 885.82677,396.85039 -44.80512,0 0,-17.71653 -42.20078,0 0,17.71653 -44.96457,0 0,-17.71653 -42.20079,0 0,17.71653 -44.96457,0 0,-17.71653 -42.20078,0 0,17.71653 -44.96457,0 0,-17.71653 -42.20079,0 0,17.71653 -44.80511,0"
           style="fill:none;stroke:#ff0000;stroke-opacity:1"
           inkscape:label="part"
           id="path11818"
           inkscape:connector-curvature="0" />
        <path
           d="m 492.51969,396.85039 0,-44.80511 17.71653,0 0,-42.20079 -17.71653,0 0,-44.96457 17.71653,0 0,-42.20079 -17.71653,0 0,-44.96456 17.71653,0 0,-42.20079 -17.71653,0 0,-44.964567 17.71653,0 0,-42.200788 -17.71653,0 0,-44.8051179"
           style="fill:none;stroke:#ff0000;stroke-opacity:1"
           inkscape:label="part"
           id="path11820"
           inkscape:connector-curvature="0" />
      </g>
      <rect
         style="fill:#000000;fill-opacity:0;stroke:#ff0000;stroke-width:0.35433072;stroke-miterlimit:4;stroke-opacity:1;stroke-dasharray:none"
         id="rect11822"
         width="45"
         height="45"
         x="56.836735"
         y="-147.88011" />
    </g>
    <g
       transform="translate(-1281.7123,-528.28068)"
       id="g8977">
      <rect
         y="146.71478"
         x="1797.8691"
         height="238.5"
         width="197.71654"
         id="rect8906"
         style="fill:#000000;fill-opacity:0;stroke:#00fe00;stroke-width:0.35433072;stroke-miterlimit:4;stroke-opacity:1;stroke-dasharray:none" />
      <path
         transform="matrix(0.32820556,0,0,0.32820556,1134.0538,211.80397)"
         d="m 2341.4039,502.487 c 0,9.51902 -7.7167,17.2357 -17.2357,17.2357 -9.519,0 -17.2357,-7.71668 -17.2357,-17.2357 0,-9.51902 7.7167,-17.2357 17.2357,-17.2357 9.519,0 17.2357,7.71668 17.2357,17.2357 z"
         sodipodi:ry="17.235703"
         sodipodi:rx="17.235703"
         sodipodi:cy="502.487"
         sodipodi:cx="2324.1682"
         id="path8908"
         style="fill:#000000;fill-opacity:0;stroke:#ff0000;stroke-width:0.35433072;stroke-miterlimit:4;stroke-opacity:1;stroke-dasharray:none"
         sodipodi:type="arc" />
      <path
         sodipodi:type="arc"
         style="fill:#000000;fill-opacity:0;stroke:#ff0000;stroke-width:0.35433072;stroke-miterlimit:4;stroke-opacity:1;stroke-dasharray:none"
         id="path8914"
         sodipodi:cx="2324.1682"
         sodipodi:cy="502.487"
         sodipodi:rx="17.235703"
         sodipodi:ry="17.235703"
         d="m 2341.4039,502.487 c 0,9.51902 -7.7167,17.2357 -17.2357,17.2357 -9.519,0 -17.2357,-7.71668 -17.2357,-17.2357 0,-9.51902 7.7167,-17.2357 17.2357,-17.2357 9.519,0 17.2357,7.71668 17.2357,17.2357 z"
         transform="matrix(0.32820556,0,0,0.32820556,1224.3103,101.474)" />
      <path
         sodipodi:type="arc"
         style="fill:#000000;fill-opacity:0;stroke:#ff0000;stroke-width:0.35433072;stroke-miterlimit:4;stroke-opacity:1;stroke-dasharray:none"
         id="path8916"
         sodipodi:cx="2324.1682"
         sodipodi:cy="502.487"
         sodipodi:rx="17.235703"
         sodipodi:ry="17.235703"
         d="m 2341.4039,502.487 c 0,9.51902 -7.7167,17.2357 -17.2357,17.2357 -9.519,0 -17.2357,-7.71668 -17.2357,-17.2357 0,-9.51902 7.7167,-17.2357 17.2357,-17.2357 9.519,0 17.2357,7.71668 17.2357,17.2357 z"
         transform="matrix(0.32820556,0,0,0.32820556,1042.6351,101.04187)" />
      <path
         transform="matrix(0.32820556,0,0,0.32820556,1133.7107,-9.93238)"
         d="m 2341.4039,502.487 c 0,9.51902 -7.7167,17.2357 -17.2357,17.2357 -9.519,0 -17.2357,-7.71668 -17.2357,-17.2357 0,-9.51902 7.7167,-17.2357 17.2357,-17.2357 9.519,0 17.2357,7.71668 17.2357,17.2357 z"
         sodipodi:ry="17.235703"
         sodipodi:rx="17.235703"
         sodipodi:cy="502.487"
         sodipodi:cx="2324.1682"
         id="path8922"
         style="fill:#000000;fill-opacity:0;stroke:#ff0000;stroke-width:0.35433072;stroke-miterlimit:4;stroke-opacity:1;stroke-dasharray:none"
         sodipodi:type="arc" />
      <rect
         style="fill:#000000;fill-opacity:0;stroke:#00fe00;stroke-width:0.30287683;stroke-miterlimit:4;stroke-opacity:1;stroke-dasharray:none"
         id="rect8960"
         width="166.30901"
         height="207.17151"
         x="1812.9974"
         y="162.51018" />
    </g>
    <g
       id="g12022"
       transform="translate(425.43367,0)">
      <g
         id="g12024"
         style="stroke:#ff0000;stroke-opacity:1"
         transform="translate(-466.41582,62.44898)">
        <path
           d="m 492.51969,418.11024 44.48622,0 0,-17.71654 42.83858,0 0,17.71654 44.32677,0 0,-17.71654 42.83858,0 0,17.71654 44.32677,0 0,-17.71654 42.83859,0 0,17.71654 44.32677,0 0,-17.71654 42.83858,0 0,17.71654 44.48622,0"
           style="fill:none;stroke:#ff0000;stroke-opacity:1"
           inkscape:label="part"
           id="path12026"
           inkscape:connector-curvature="0" />
        <path
           d="m 885.82677,418.11024 0,27.91535 -17.71653,0 0,42.20079 17.71653,0 0,45.79134 -17.71653,0 0,42.20078 17.71653,0 0,45.79134 -17.71653,0 0,42.20079 17.71653,0 0,45.79134 -17.71653,0 0,42.20079 17.71653,0 0,45.79133 -17.71653,0 0,42.20079 17.71653,0 0,27.91536"
           style="fill:none;stroke:#ff0000;stroke-opacity:1"
           inkscape:label="part"
           id="path12028"
           inkscape:connector-curvature="0" />
        <path
           d="m 885.82677,868.11024 -44.48622,0 0,17.71653 -42.83858,0 0,-17.71653 -44.32677,0 0,17.71653 -42.83859,0 0,-17.71653 -44.32677,0 0,17.71653 -42.83858,0 0,-17.71653 -44.32677,0 0,17.71653 -42.83858,0 0,-17.71653 -44.48622,0"
           style="fill:none;stroke:#ff0000;stroke-opacity:1"
           inkscape:label="part"
           id="path12030"
           inkscape:connector-curvature="0" />
        <path
           d="m 492.51969,868.11024 0,-27.91536 17.71653,0 0,-42.20079 -17.71653,0 0,-45.79133 17.71653,0 0,-42.20079 -17.71653,0 0,-45.79134 17.71653,0 0,-42.20079 -17.71653,0 0,-45.79134 17.71653,0 0,-42.20078 -17.71653,0 0,-45.79134 17.71653,0 0,-42.20079 -17.71653,0 0,-27.91535"
           style="fill:none;stroke:#ff0000;stroke-opacity:1"
           inkscape:label="part"
           id="path12032"
           inkscape:connector-curvature="0" />
      </g>
      <rect
         style="fill:#000000;fill-opacity:0;stroke:#ff0000;stroke-width:0.35433072;stroke-miterlimit:4;stroke-opacity:1;stroke-dasharray:none"
         id="rect12034"
         width="312.2449"
         height="402.01532"
         x="66.352043"
         y="981.61987"
         transform="translate(0,-477.6403)" />
    </g>
    <rect
       y="588.44647"
       x="884.80225"
       height="248.15599"
       width="216.83742"
       id="rect12053"
       style="fill:#000000;fill-opacity:0;stroke:#ff0000;stroke-width:0.37850589000000001;stroke-miterlimit:4;stroke-opacity:1;stroke-dasharray:none" />
    <path
       transform="matrix(0.32820556,0,0,0.32820556,228.98691,659.19166)"
       d="m 2341.4039,502.487 a 17.235703,17.235703 0 1 1 -34.4714,0 17.235703,17.235703 0 1 1 34.4714,0 z"
       sodipodi:ry="17.235703"
       sodipodi:rx="17.235703"
       sodipodi:cy="502.487"
       sodipodi:cx="2324.1682"
       id="path12055"
       style="fill:#000000;fill-opacity:0;stroke:#ff0000;stroke-width:0.35433072;stroke-miterlimit:4;stroke-opacity:1;stroke-dasharray:none"
       sodipodi:type="arc" />
    <path
       sodipodi:type="arc"
       style="fill:#000000;fill-opacity:0;stroke:#ff0000;stroke-width:0.35433072;stroke-miterlimit:4;stroke-opacity:1;stroke-dasharray:none"
       id="path12057"
       sodipodi:cx="2324.1682"
       sodipodi:cy="502.487"
       sodipodi:rx="17.235703"
       sodipodi:ry="17.235703"
       d="m 2341.4039,502.487 a 17.235703,17.235703 0 1 1 -34.4714,0 17.235703,17.235703 0 1 1 34.4714,0 z"
       transform="matrix(0.32820556,0,0,0.32820556,319.24341,548.86169)" />
    <path
       sodipodi:type="arc"
       style="fill:#000000;fill-opacity:0;stroke:#ff0000;stroke-width:0.35433072;stroke-miterlimit:4;stroke-opacity:1;stroke-dasharray:none"
       id="path12059"
       sodipodi:cx="2324.1682"
       sodipodi:cy="502.487"
       sodipodi:rx="17.235703"
       sodipodi:ry="17.235703"
       d="m 2341.4039,502.487 a 17.235703,17.235703 0 1 1 -34.4714,0 17.235703,17.235703 0 1 1 34.4714,0 z"
       transform="matrix(0.32820556,0,0,0.32820556,137.56821,548.42956)" />
    <path
       transform="matrix(0.32820556,0,0,0.32820556,228.64381,437.45531)"
       d="m 2341.4039,502.487 a 17.235703,17.235703 0 1 1 -34.4714,0 17.235703,17.235703 0 1 1 34.4714,0 z"
       sodipodi:ry="17.235703"
       sodipodi:rx="17.235703"
       sodipodi:cy="502.487"
       sodipodi:cx="2324.1682"
       id="path12061"
       style="fill:#000000;fill-opacity:0;stroke:#ff0000;stroke-width:0.35433072;stroke-miterlimit:4;stroke-opacity:1;stroke-dasharray:none"
       sodipodi:type="arc" />
    <rect
       style="fill:#000000;fill-opacity:0;stroke:#00fe00;stroke-width:0.30287683;stroke-miterlimit:4;stroke-opacity:1;stroke-dasharray:none"
       id="rect12063"
       width="166.30901"
       height="207.17151"
       x="910.06647"
       y="608.93872" />
    <path
       d="m 875.64639,-439.30138 42.20079,0 0,-17.71653 44.96457,0 0,17.71653 42.20075,0 0,-17.71653 44.9646,0 0,17.71653 42.2008,0 0,-17.71653 44.9646,0 0,17.71653 42.2007,0"
       style="fill:none;stroke:#ff0000;stroke-opacity:1"
       inkscape:label="part"
       id="path12075"
       inkscape:connector-curvature="0"
       sodipodi:nodetypes="cccccccccccccc" />
    <path
       d="m 1179.3432,-81.42736 -42.2007,0 0,17.71653 -44.9646,0 0,-17.71653 -42.2008,0 0,17.71653 -44.9646,0 0,-17.71653 -42.20075,0 0,17.71653 -44.96457,0 0,-17.71653 -42.20079,0"
       style="fill:none;stroke:#ff0000;stroke-opacity:1"
       inkscape:label="part"
       id="path12079"
       inkscape:connector-curvature="0"
       sodipodi:nodetypes="cccccccccccccc" />
    <rect
       y="-147.88011"
       x="895.1864"
       height="45"
       width="45"
       id="rect12083"
       style="fill:#000000;fill-opacity:0;stroke:#ff0000;stroke-width:0.35433072;stroke-miterlimit:4;stroke-opacity:1;stroke-dasharray:none" />
    <path
       style="fill:none;stroke:#ff0000;stroke-width:1px;stroke-linecap:butt;stroke-linejoin:miter;stroke-opacity:1"
       d="m 875.94888,37.054051 0,358.045269"
       id="path12095"
       inkscape:connector-curvature="0"
       transform="translate(0,-477.6403)" />
    <path
       inkscape:connector-curvature="0"
       id="path12097"
       d="m 1178.8977,-440.58625 0,358.04527"
       style="fill:none;stroke:#ff0000;stroke-width:1px;stroke-linecap:butt;stroke-linejoin:miter;stroke-opacity:1" />
    <g
       id="g12107">
      <g
         style="stroke:#ff0000;stroke-opacity:1"
         id="g11178">
        <path
           id="path11144"
           inkscape:label="part"
           style="fill:none;stroke:#ff0000;stroke-opacity:1"
           d="m 21.259843,21.259843 27.596456,0 0,-17.7165359 42.838583,0 0,17.7165359 45.153548,0 0,-17.7165359 42.83858,0 0,17.7165359 45.15354,0 0,-17.7165359 42.83858,0 0,17.7165359 45.15355,0 0,-17.7165359 42.83858,0 0,17.7165359 45.15354,0 0,-17.7165359 42.83859,0 0,17.7165359 27.59645,0"
           inkscape:connector-curvature="0" />
        <path
           id="path11146"
           inkscape:label="part"
           style="fill:none;stroke:#ff0000;stroke-opacity:1"
           d="m 471.25984,21.259843 0,26.769685 17.71654,0 0,42.838582 -17.71654,0 0,44.32677 17.71654,0 0,42.83858 -17.71654,0 0,44.32678 17.71654,0 0,42.83858 -17.71654,0 0,44.32677 17.71654,0 0,42.83858 -17.71654,0 0,26.76969"
           inkscape:connector-curvature="0" />
        <path
           id="path11148"
           inkscape:label="part"
           style="fill:none;stroke:#ff0000;stroke-opacity:1"
           d="m 471.25984,379.13386 -27.59645,0 0,17.71653 -42.83859,0 0,-17.71653 -45.15354,0 0,17.71653 -42.83858,0 0,-17.71653 -45.15355,0 0,17.71653 -42.83858,0 0,-17.71653 -45.15354,0 0,17.71653 -42.83858,0 0,-17.71653 -45.153548,0 0,17.71653 -42.838583,0 0,-17.71653 -27.596456,0"
           inkscape:connector-curvature="0" />
        <path
           id="path11150"
           inkscape:label="part"
           style="fill:none;stroke:#ff0000;stroke-opacity:1"
           d="m 21.259843,379.13386 0,-26.76969 -17.7165359,0 0,-42.83858 17.7165359,0 0,-44.32677 -17.7165359,0 0,-42.83858 17.7165359,0 0,-44.32678 -17.7165359,0 0,-42.83858 17.7165359,0 0,-44.32677 -17.7165359,0 0,-42.838582 17.7165359,0 0,-26.769685"
           inkscape:connector-curvature="0" />
      </g>
      <g
         id="g10998"
         transform="matrix(-1,0,0,-1,1018.3896,96.059645)">
        <rect
           y="-137.38185"
           x="571.48938"
           height="70.489296"
           width="146.4183"
           id="rect11000"
           style="fill:#000000;fill-opacity:0;stroke:#ff0000;stroke-width:0.29108068;stroke-miterlimit:4;stroke-opacity:1;stroke-dasharray:none" />
        <path
           transform="matrix(0.46809619,0,0,0.95875123,384.27946,-4.6011488)"
           d="m 750.24143,-118.8011 c 0,3.22373 -5.35265,5.83708 -11.95548,5.83708 -6.60283,0 -11.95548,-2.61335 -11.95548,-5.83708 0,-3.22374 5.35265,-5.83709 11.95548,-5.83709 6.60283,0 11.95548,2.61335 11.95548,5.83709 z"
           sodipodi:ry="5.8370867"
           sodipodi:rx="11.955479"
           sodipodi:cy="-118.8011"
           sodipodi:cx="738.28595"
           id="path11002"
           style="fill:#000000;fill-opacity:0;stroke:#ff0000;stroke-width:0.35433072;stroke-miterlimit:4;stroke-opacity:1;stroke-dasharray:none"
           sodipodi:type="arc" />
        <path
           sodipodi:type="arc"
           style="fill:#000000;fill-opacity:0;stroke:#ff0000;stroke-width:0.35433072;stroke-miterlimit:4;stroke-opacity:1;stroke-dasharray:none"
           id="path11004"
           sodipodi:cx="738.28595"
           sodipodi:cy="-118.8011"
           sodipodi:rx="11.955479"
           sodipodi:ry="5.8370867"
           d="m 750.24143,-118.8011 c 0,3.22373 -5.35265,5.83708 -11.95548,5.83708 -6.60283,0 -11.95548,-2.61335 -11.95548,-5.83708 0,-3.22374 5.35265,-5.83709 11.95548,-5.83709 6.60283,0 11.95548,2.61335 11.95548,5.83709 z"
           transform="matrix(0.46809619,0,0,0.95875123,384.27946,27.398851)" />
        <path
           transform="matrix(0.46809619,0,0,0.95875123,214.40403,28.609924)"
           d="m 750.24143,-118.8011 c 0,3.22373 -5.35265,5.83708 -11.95548,5.83708 -6.60283,0 -11.95548,-2.61335 -11.95548,-5.83708 0,-3.22374 5.35265,-5.83709 11.95548,-5.83709 6.60283,0 11.95548,2.61335 11.95548,5.83709 z"
           sodipodi:ry="5.8370867"
           sodipodi:rx="11.955479"
           sodipodi:cy="-118.8011"
           sodipodi:cx="738.28595"
           id="path11006"
           style="fill:#000000;fill-opacity:0;stroke:#ff0000;stroke-width:0.35433072;stroke-miterlimit:4;stroke-opacity:1;stroke-dasharray:none"
           sodipodi:type="arc" />
        <path
           sodipodi:type="arc"
           style="fill:#000000;fill-opacity:0;stroke:#ff0000;stroke-width:0.35433072;stroke-miterlimit:4;stroke-opacity:1;stroke-dasharray:none"
           id="path11008"
           sodipodi:cx="738.28595"
           sodipodi:cy="-118.8011"
           sodipodi:rx="11.955479"
           sodipodi:ry="5.8370867"
           d="m 750.24143,-118.8011 c 0,3.22373 -5.35265,5.83708 -11.95548,5.83708 -6.60283,0 -11.95548,-2.61335 -11.95548,-5.83708 0,-3.22374 5.35265,-5.83709 11.95548,-5.83709 6.60283,0 11.95548,2.61335 11.95548,5.83709 z"
           transform="matrix(0.46809619,0,0,0.95875123,214.23102,-5.9921521)" />
      </g>
      <rect
         transform="translate(0,-477.6403)"
         y="570.7038"
         x="231.81587"
         height="44.958229"
         width="18.26428"
         id="rect12101"
         style="fill:#000000;fill-opacity:0;stroke:#ff0000;stroke-width:0.35433072;stroke-miterlimit:4;stroke-opacity:1;stroke-dasharray:none" />
      <rect
         style="fill:#000000;fill-opacity:0;stroke:#ff0000;stroke-width:0.35433072;stroke-miterlimit:4;stroke-opacity:1;stroke-dasharray:none"
         id="rect12103"
         width="18.26428"
         height="44.958229"
         x="232.09686"
         y="180.45105" />
      <rect
         y="267.27664"
         x="231.81587"
         height="44.958229"
         width="18.26428"
         id="rect12105"
         style="fill:#000000;fill-opacity:0;stroke:#ff0000;stroke-width:0.35433072;stroke-miterlimit:4;stroke-opacity:1;stroke-dasharray:none" />
    </g>
    <g
       id="g12123"
       transform="translate(507.39796,0)">
      <g
         id="g12125"
         style="stroke:#ff0000;stroke-opacity:1">
        <path
           inkscape:connector-curvature="0"
           d="m 21.259843,21.259843 27.596456,0 0,-17.7165359 42.838583,0 0,17.7165359 45.153548,0 0,-17.7165359 42.83858,0 0,17.7165359 45.15354,0 0,-17.7165359 42.83858,0 0,17.7165359 45.15355,0 0,-17.7165359 42.83858,0 0,17.7165359 45.15354,0 0,-17.7165359 42.83859,0 0,17.7165359 27.59645,0"
           style="fill:none;stroke:#ff0000;stroke-opacity:1"
           inkscape:label="part"
           id="path12127" />
        <path
           inkscape:connector-curvature="0"
           d="m 471.25984,21.259843 0,26.769685 17.71654,0 0,42.838582 -17.71654,0 0,44.32677 17.71654,0 0,42.83858 -17.71654,0 0,44.32678 17.71654,0 0,42.83858 -17.71654,0 0,44.32677 17.71654,0 0,42.83858 -17.71654,0 0,26.76969"
           style="fill:none;stroke:#ff0000;stroke-opacity:1"
           inkscape:label="part"
           id="path12129" />
        <path
           inkscape:connector-curvature="0"
           d="m 471.25984,379.13386 -27.59645,0 0,17.71653 -42.83859,0 0,-17.71653 -45.15354,0 0,17.71653 -42.83858,0 0,-17.71653 -45.15355,0 0,17.71653 -42.83858,0 0,-17.71653 -45.15354,0 0,17.71653 -42.83858,0 0,-17.71653 -45.153548,0 0,17.71653 -42.838583,0 0,-17.71653 -27.596456,0"
           style="fill:none;stroke:#ff0000;stroke-opacity:1"
           inkscape:label="part"
           id="path12131" />
        <path
           inkscape:connector-curvature="0"
           d="m 21.259843,379.13386 0,-26.76969 -17.7165359,0 0,-42.83858 17.7165359,0 0,-44.32677 -17.7165359,0 0,-42.83858 17.7165359,0 0,-44.32678 -17.7165359,0 0,-42.83858 17.7165359,0 0,-44.32677 -17.7165359,0 0,-42.838582 17.7165359,0 0,-26.769685"
           style="fill:none;stroke:#ff0000;stroke-opacity:1"
           inkscape:label="part"
           id="path12133" />
      </g>
      <g
         transform="matrix(-1,0,0,-1,1018.3896,96.059645)"
         id="g12135">
        <rect
           style="fill:#000000;fill-opacity:0;stroke:#ff0000;stroke-width:0.29108068;stroke-miterlimit:4;stroke-opacity:1;stroke-dasharray:none"
           id="rect12137"
           width="146.4183"
           height="70.489296"
           x="571.48938"
           y="-137.38185" />
        <path
           sodipodi:type="arc"
           style="fill:#000000;fill-opacity:0;stroke:#ff0000;stroke-width:0.35433072;stroke-miterlimit:4;stroke-opacity:1;stroke-dasharray:none"
           id="path12139"
           sodipodi:cx="738.28595"
           sodipodi:cy="-118.8011"
           sodipodi:rx="11.955479"
           sodipodi:ry="5.8370867"
           d="m 750.24143,-118.8011 c 0,3.22373 -5.35265,5.83708 -11.95548,5.83708 -6.60283,0 -11.95548,-2.61335 -11.95548,-5.83708 0,-3.22374 5.35265,-5.83709 11.95548,-5.83709 6.60283,0 11.95548,2.61335 11.95548,5.83709 z"
           transform="matrix(0.46809619,0,0,0.95875123,384.27946,-4.6011488)" />
        <path
           transform="matrix(0.46809619,0,0,0.95875123,384.27946,27.398851)"
           d="m 750.24143,-118.8011 c 0,3.22373 -5.35265,5.83708 -11.95548,5.83708 -6.60283,0 -11.95548,-2.61335 -11.95548,-5.83708 0,-3.22374 5.35265,-5.83709 11.95548,-5.83709 6.60283,0 11.95548,2.61335 11.95548,5.83709 z"
           sodipodi:ry="5.8370867"
           sodipodi:rx="11.955479"
           sodipodi:cy="-118.8011"
           sodipodi:cx="738.28595"
           id="path12141"
           style="fill:#000000;fill-opacity:0;stroke:#ff0000;stroke-width:0.35433072;stroke-miterlimit:4;stroke-opacity:1;stroke-dasharray:none"
           sodipodi:type="arc" />
        <path
           sodipodi:type="arc"
           style="fill:#000000;fill-opacity:0;stroke:#ff0000;stroke-width:0.35433072;stroke-miterlimit:4;stroke-opacity:1;stroke-dasharray:none"
           id="path12143"
           sodipodi:cx="738.28595"
           sodipodi:cy="-118.8011"
           sodipodi:rx="11.955479"
           sodipodi:ry="5.8370867"
           d="m 750.24143,-118.8011 c 0,3.22373 -5.35265,5.83708 -11.95548,5.83708 -6.60283,0 -11.95548,-2.61335 -11.95548,-5.83708 0,-3.22374 5.35265,-5.83709 11.95548,-5.83709 6.60283,0 11.95548,2.61335 11.95548,5.83709 z"
           transform="matrix(0.46809619,0,0,0.95875123,214.40403,28.609924)" />
        <path
           transform="matrix(0.46809619,0,0,0.95875123,214.23102,-5.9921521)"
           d="m 750.24143,-118.8011 c 0,3.22373 -5.35265,5.83708 -11.95548,5.83708 -6.60283,0 -11.95548,-2.61335 -11.95548,-5.83708 0,-3.22374 5.35265,-5.83709 11.95548,-5.83709 6.60283,0 11.95548,2.61335 11.95548,5.83709 z"
           sodipodi:ry="5.8370867"
           sodipodi:rx="11.955479"
           sodipodi:cy="-118.8011"
           sodipodi:cx="738.28595"
           id="path12145"
           style="fill:#000000;fill-opacity:0;stroke:#ff0000;stroke-width:0.35433072;stroke-miterlimit:4;stroke-opacity:1;stroke-dasharray:none"
           sodipodi:type="arc" />
      </g>
      <rect
         style="fill:#000000;fill-opacity:0;stroke:#ff0000;stroke-width:0.35433072;stroke-miterlimit:4;stroke-opacity:1;stroke-dasharray:none"
         id="rect12147"
         width="18.26428"
         height="44.958229"
         x="231.81587"
         y="570.7038"
         transform="translate(0,-477.6403)" />
      <rect
         y="180.45105"
         x="232.09686"
         height="44.958229"
         width="18.26428"
         id="rect12149"
         style="fill:#000000;fill-opacity:0;stroke:#ff0000;stroke-width:0.35433072;stroke-miterlimit:4;stroke-opacity:1;stroke-dasharray:none" />
      <rect
         style="fill:#000000;fill-opacity:0;stroke:#ff0000;stroke-width:0.35433072;stroke-miterlimit:4;stroke-opacity:1;stroke-dasharray:none"
         id="rect12151"
         width="18.26428"
         height="44.958229"
         x="231.81587"
         y="267.27664" />
    </g>
  </g>
  <g
     id="g11160"
     inkscape:groupmode="layer"
     inkscape:label="newlayer" />
</svg>
