<?xml version="1.0" encoding="UTF-8" standalone="no"?>
<!-- Created with Inkscape (http://www.inkscape.org/) -->

<svg
   xmlns:dc="http://purl.org/dc/elements/1.1/"
   xmlns:cc="http://creativecommons.org/ns#"
   xmlns:rdf="http://www.w3.org/1999/02/22-rdf-syntax-ns#"
   xmlns:svg="http://www.w3.org/2000/svg"
   xmlns="http://www.w3.org/2000/svg"
   xmlns:sodipodi="http://sodipodi.sourceforge.net/DTD/sodipodi-0.dtd"
   xmlns:inkscape="http://www.inkscape.org/namespaces/inkscape"
   sodipodi:docname="DoubleBot.svg"
   inkscape:version="0.48.2 r9819"
   version="1.1"
   id="svg7991"
   height="1530"
   width="2160">
  <sodipodi:namedview
     id="base"
     pagecolor="#ffffff"
     bordercolor="#666666"
     borderopacity="1.0"
     inkscape:pageopacity="0.0"
     inkscape:pageshadow="2"
     inkscape:zoom="1.4182101"
     inkscape:cx="1622.6511"
     inkscape:cy="1477.4051"
     inkscape:document-units="px"
     inkscape:current-layer="svg7991"
     showgrid="false"
     units="in"
     inkscape:window-width="1662"
     inkscape:window-height="1003"
     inkscape:window-x="7"
     inkscape:window-y="0"
     inkscape:window-maximized="0"
     showguides="true"
     inkscape:guide-bbox="true">
    <sodipodi:guide
       orientation="0,1"
       position="1854.7173,1367.518"
       id="guide8918" />
    <sodipodi:guide
       orientation="1,0"
       position="1812.9974,1319.6381"
       id="guide8920" />
    <sodipodi:guide
       orientation="1,0"
       position="1979.0372,1314.8781"
       id="guide8973" />
    <sodipodi:guide
       orientation="0,1"
       position="1952.4372,1160.3183"
       id="guide8975" />
    <sodipodi:guide
       orientation="0,1"
       position="136.57456,766.77736"
       id="guide11046" />
    <sodipodi:guide
       orientation="0,1"
       position="188.01969,748.4041"
       id="guide11048" />
    <sodipodi:guide
       orientation="1,0"
       position="94.316065,748.4041"
       id="guide11056" />
    <sodipodi:guide
       orientation="1,0"
       position="143.92386,748.4041"
       id="guide11058" />
    <sodipodi:guide
       orientation="1,0"
       position="186.7948,718.39444"
       id="guide11060" />
    <sodipodi:guide
       orientation="1,0"
       position="234.56528,709.20781"
       id="guide11062" />
    <sodipodi:guide
       orientation="1,0"
       position="277.43622,696.34653"
       id="guide11064" />
    <sodipodi:guide
       orientation="1,0"
       position="327.04402,672.46129"
       id="guide11066" />
    <sodipodi:guide
       orientation="1,0"
       position="369.30251,673.07373"
       id="guide11068" />
    <sodipodi:guide
       orientation="1,0"
       position="418.29787,668.78664"
       id="guide11070" />
    <sodipodi:guide
       orientation="1,0"
       position="461.16881,677.97327"
       id="guide11072" />
  </sodipodi:namedview>
  <defs
     id="defs7993" />
  <metadata
     id="metadata7996">
    <rdf:RDF>
      <cc:Work
         rdf:about="">
        <dc:format>image/svg+xml</dc:format>
        <dc:type
           rdf:resource="http://purl.org/dc/dcmitype/StillImage" />
      </cc:Work>
    </rdf:RDF>
  </metadata>
  <g
     transform="translate(0,477.6403)"
     id="layer1"
     inkscape:groupmode="layer"
     inkscape:label="Layer 1" />
  <g
     id="g8244"
     inkscape:groupmode="layer"
     inkscape:label="newlayer" />
  <g
     id="g8880"
     transform="translate(0,4)">
    <path
       d="m 21.259843,531.49606 31.139763,0 0,-17.71653 42.838583,0 0,17.71653 48.696851,0 0,-17.71653 42.83858,0 0,17.71653 48.69685,0 0,-17.71653 42.83859,0 0,17.71653 48.69685,0 0,-17.71653 42.83858,0 0,17.71653 48.69685,0 0,-17.71653 42.83858,0 0,17.71653 31.13977,0"
       style="fill:none;stroke:#ff0000;stroke-opacity:1"
       inkscape:label="part"
       id="path8254"
       inkscape:connector-curvature="0" />
    <path
       d="m 492.51969,531.49606 0,31.13977 17.71653,0 0,42.83858 -17.71653,0 0,48.69685 17.71653,0 0,42.83858 -17.71653,0 0,48.69685 17.71653,0 0,42.83859 -17.71653,0 0,48.69685 17.71653,0 0,42.83858 -17.71653,0 0,48.69685 17.71653,0 0,42.83858 -17.71653,0 0,31.13976"
       style="fill:none;stroke:#ff0000;stroke-opacity:1"
       inkscape:label="part"
       id="path8256"
       inkscape:connector-curvature="0" />
    <path
       d="m 492.51969,1002.7559 -31.13977,0 0,17.7165 -42.83858,0 0,-17.7165 -48.69685,0 0,17.7165 -42.83858,0 0,-17.7165 -48.69685,0 0,17.7165 -42.83859,0 0,-17.7165 -48.69685,0 0,17.7165 -42.83858,0 0,-17.7165 -48.696851,0 0,17.7165 -42.838583,0 0,-17.7165 -31.139763,0"
       style="fill:none;stroke:#ff0000;stroke-opacity:1"
       inkscape:label="part"
       id="path8258"
       inkscape:connector-curvature="0" />
    <path
       d="m 21.259843,1002.7559 0,-31.13976 -17.7165359,0 0,-42.83858 17.7165359,0 0,-48.69685 -17.7165359,0 0,-42.83858 17.7165359,0 0,-48.69685 -17.7165359,0 0,-42.83859 17.7165359,0 0,-48.69685 -17.7165359,0 0,-42.83858 17.7165359,0 0,-48.69685 -17.7165359,0 0,-42.83858 17.7165359,0 0,-31.13977"
       style="fill:none;stroke:#ff0000;stroke-opacity:1"
       inkscape:label="part"
       id="path8260"
       inkscape:connector-curvature="0" />
  </g>
  <g
     id="g8868"
     transform="translate(1129.6014,-501.16118)">
    <path
       d="m 513.77953,513.77953 49.17519,0 0,17.71653 42.20079,0 0,-17.71653 49.33465,0 0,17.71653 42.20078,0 0,-17.71653 49.33465,0 0,17.71653 42.20079,0 0,-17.71653 49.33464,0 0,17.71653 42.20079,0 0,-17.71653 49.33465,0 0,17.71653 42.20078,0 0,-17.71653 49.17516,0"
       style="fill:none;stroke:#ff0000;stroke-opacity:1"
       inkscape:label="part"
       id="path8262"
       inkscape:connector-curvature="0" />
    <path
       d="m 1020.4724,513.77953 0,49.17519 -17.7165,0 0,42.20079 17.7165,0 0,49.33465 -17.7165,0 0,42.20078 17.7165,0 0,49.33465 -17.7165,0 0,42.20079 17.7165,0 0,49.33464 -17.7165,0 0,42.20079 17.7165,0 0,49.33465 -17.7165,0 0,42.20078 17.7165,0 0,49.17516"
       style="fill:none;stroke:#ff0000;stroke-opacity:1"
       inkscape:label="part"
       id="path8264"
       inkscape:connector-curvature="0" />
    <path
       d="m 1020.4724,1020.4724 -49.17516,0 0,-17.7165 -42.20078,0 0,17.7165 -49.33465,0 0,-17.7165 -42.20079,0 0,17.7165 -49.33464,0 0,-17.7165 -42.20079,0 0,17.7165 -49.33465,0 0,-17.7165 -42.20078,0 0,17.7165 -49.33465,0 0,-17.7165 -42.20079,0 0,17.7165 -49.17519,0"
       style="fill:none;stroke:#ff0000;stroke-opacity:1"
       inkscape:label="part"
       id="path8266"
       inkscape:connector-curvature="0" />
    <path
       d="m 513.77953,1020.4724 0,-49.17516 17.71653,0 0,-42.20078 -17.71653,0 0,-49.33465 17.71653,0 0,-42.20079 -17.71653,0 0,-49.33464 17.71653,0 0,-42.20079 -17.71653,0 0,-49.33465 17.71653,0 0,-42.20078 -17.71653,0 0,-49.33465 17.71653,0 0,-42.20079 -17.71653,0 0,-49.17519"
       style="fill:none;stroke:#ff0000;stroke-opacity:1"
       inkscape:label="part"
       id="path8268"
       inkscape:connector-curvature="0" />
  </g>
  <g
     id="g8328"
     transform="translate(-1021.5355,-509.07106)"
     style="stroke:#ff0000;stroke-opacity:1">
    <path
       d="m 1041.7323,531.49606 31.1397,0 0,-17.71653 42.8386,0 0,17.71653 48.6969,0 0,-17.71653 42.8386,0 0,17.71653 48.6968,0 0,-17.71653 42.8386,0 0,17.71653 48.6968,0 0,-17.71653 42.8386,0 0,17.71653 48.6969,0 0,-17.71653 42.8386,0 0,17.71653 31.1397,0"
       style="fill:none;stroke:#ff0000;stroke-opacity:1"
       inkscape:label="part"
       id="path8270"
       inkscape:connector-curvature="0" />
    <path
       d="m 1512.9921,531.49606 0,31.13977 17.7166,0 0,42.83858 -17.7166,0 0,48.69685 17.7166,0 0,42.83858 -17.7166,0 0,48.69685 17.7166,0 0,42.83859 -17.7166,0 0,48.69685 17.7166,0 0,42.83858 -17.7166,0 0,48.69685 17.7166,0 0,42.83858 -17.7166,0 0,31.13976"
       style="fill:none;stroke:#ff0000;stroke-opacity:1"
       inkscape:label="part"
       id="path8272"
       inkscape:connector-curvature="0" />
    <path
       d="m 1512.9921,1002.7559 -31.1397,0 0,17.7165 -42.8386,0 0,-17.7165 -48.6969,0 0,17.7165 -42.8386,0 0,-17.7165 -48.6968,0 0,17.7165 -42.8386,0 0,-17.7165 -48.6968,0 0,17.7165 -42.8386,0 0,-17.7165 -48.6969,0 0,17.7165 -42.8386,0 0,-17.7165 -31.1397,0"
       style="fill:none;stroke:#ff0000;stroke-opacity:1"
       inkscape:label="part"
       id="path8274"
       inkscape:connector-curvature="0" />
    <path
       d="m 1041.7323,1002.7559 0,-31.13976 -17.7166,0 0,-42.83858 17.7166,0 0,-48.69685 -17.7166,0 0,-42.83858 17.7166,0 0,-48.69685 -17.7166,0 0,-42.83859 17.7166,0 0,-48.69685 -17.7166,0 0,-42.83858 17.7166,0 0,-48.69685 -17.7166,0 0,-42.83858 17.7166,0 0,-31.13977"
       style="fill:none;stroke:#ff0000;stroke-opacity:1"
       inkscape:label="part"
       id="path8276"
       inkscape:connector-curvature="0" />
  </g>
  <g
     id="g8322"
     transform="translate(-452.1733,-505.76777)"
     style="stroke:#ff0000;stroke-opacity:1">
    <path
       d="m 1534.252,513.77953 49.1752,0 0,17.71653 42.2008,0 0,-17.71653 49.3346,0 0,17.71653 42.2008,0 0,-17.71653 49.3346,0 0,17.71653 42.2008,0 0,-17.71653 49.3347,0 0,17.71653 42.2008,0 0,-17.71653 49.3346,0 0,17.71653 42.2008,0 0,-17.71653 49.1752,0"
       style="fill:none;stroke:#ff0000;stroke-opacity:1"
       inkscape:label="part"
       id="path8278"
       inkscape:connector-curvature="0" />
    <path
       d="m 2040.9449,513.77953 0,49.17519 -17.7166,0 0,42.20079 17.7166,0 0,49.33465 -17.7166,0 0,42.20078 17.7166,0 0,49.33465 -17.7166,0 0,42.20079 17.7166,0 0,49.33464 -17.7166,0 0,42.20079 17.7166,0 0,49.33465 -17.7166,0 0,42.20078 17.7166,0 0,49.17516"
       style="fill:none;stroke:#ff0000;stroke-opacity:1"
       inkscape:label="part"
       id="path8280"
       inkscape:connector-curvature="0" />
    <path
       d="m 2040.9449,1020.4724 -49.1752,0 0,-17.7165 -42.2008,0 0,17.7165 -49.3346,0 0,-17.7165 -42.2008,0 0,17.7165 -49.3347,0 0,-17.7165 -42.2008,0 0,17.7165 -49.3346,0 0,-17.7165 -42.2008,0 0,17.7165 -49.3346,0 0,-17.7165 -42.2008,0 0,17.7165 -49.1752,0"
       style="fill:none;stroke:#ff0000;stroke-opacity:1"
       inkscape:label="part"
       id="path8282"
       inkscape:connector-curvature="0" />
    <path
       d="m 1534.252,1020.4724 0,-49.17516 17.7165,0 0,-42.20078 -17.7165,0 0,-49.33465 17.7165,0 0,-42.20079 -17.7165,0 0,-49.33464 17.7165,0 0,-42.20079 -17.7165,0 0,-49.33465 17.7165,0 0,-42.20078 -17.7165,0 0,-49.33465 17.7165,0 0,-42.20079 -17.7165,0 0,-49.17519"
       style="fill:none;stroke:#ff0000;stroke-opacity:1"
       inkscape:label="part"
       id="path8284"
       inkscape:connector-curvature="0" />
  </g>
  <g
     id="g8890">
    <g
       transform="translate(0,2)"
       id="g8874">
      <path
         inkscape:connector-curvature="0"
         id="path8286"
         inkscape:label="part"
         style="fill:none;stroke:#ff0000;stroke-opacity:1"
         d="m 513.77953,21.259843 48.8563,0 0,-17.7165359 42.83858,0 0,17.7165359 48.69685,0 0,-17.7165359 42.83858,0 0,17.7165359 48.69685,0 0,-17.7165359 42.83859,0 0,17.7165359 48.69685,0 0,-17.7165359 42.83858,0 0,17.7165359 48.69685,0 0,-17.7165359 42.83858,0 0,17.7165359 48.85626,0" />
      <path
         inkscape:connector-curvature="0"
         id="path8288"
         inkscape:label="part"
         style="fill:none;stroke:#ff0000;stroke-opacity:1"
         d="m 1020.4724,21.259843 0,31.458661 -17.7165,0 0,42.200787 17.7165,0 0,49.334649 -17.7165,0 0,42.20078 17.7165,0 0,49.33465 -17.7165,0 0,42.20079 17.7165,0 0,49.33464 -17.7165,0 0,42.20079 17.7165,0 0,49.33465 -17.7165,0 0,42.20078 17.7165,0 0,31.45867" />
      <path
         inkscape:connector-curvature="0"
         id="path8290"
         inkscape:label="part"
         style="fill:none;stroke:#ff0000;stroke-opacity:1"
         d="m 1020.4724,492.51969 -48.85626,0 0,17.71653 -42.83858,0 0,-17.71653 -48.69685,0 0,17.71653 -42.83858,0 0,-17.71653 -48.69685,0 0,17.71653 -42.83859,0 0,-17.71653 -48.69685,0 0,17.71653 -42.83858,0 0,-17.71653 -48.69685,0 0,17.71653 -42.83858,0 0,-17.71653 -48.8563,0" />
      <path
         inkscape:connector-curvature="0"
         id="path8292"
         inkscape:label="part"
         style="fill:none;stroke:#ff0000;stroke-opacity:1"
         d="m 513.77953,492.51969 0,-31.45867 17.71653,0 0,-42.20078 -17.71653,0 0,-49.33465 17.71653,0 0,-42.20079 -17.71653,0 0,-49.33464 17.71653,0 0,-42.20079 -17.71653,0 0,-49.33465 17.71653,0 0,-42.20078 -17.71653,0 0,-49.334649 17.71653,0 0,-42.200787 -17.71653,0 0,-31.458661" />
    </g>
    <rect
       y="54.704353"
       x="556.31146"
       height="408.37082"
       width="421.62903"
       id="rect8886"
       style="fill:#000000;fill-opacity:0;stroke:#ff0000;stroke-width:0.33707139;stroke-miterlimit:4;stroke-opacity:1;stroke-dasharray:none" />
  </g>
  <g
     id="g8898">
    <g
       transform="translate(5.3032929,-506.46447)"
       id="g8858">
      <path
         inkscape:connector-curvature="0"
         id="path8246"
         inkscape:label="part"
         style="fill:none;stroke:#ff0000;stroke-opacity:1"
         d="m 513.77953,1041.7323 48.8563,0 0,-17.7166 42.83858,0 0,17.7166 48.69685,0 0,-17.7166 42.83858,0 0,17.7166 48.69685,0 0,-17.7166 42.83859,0 0,17.7166 48.69685,0 0,-17.7166 42.83858,0 0,17.7166 48.69685,0 0,-17.7166 42.83858,0 0,17.7166 48.85626,0" />
      <path
         inkscape:connector-curvature="0"
         id="path8248"
         inkscape:label="part"
         style="fill:none;stroke:#ff0000;stroke-opacity:1"
         d="m 1020.4724,1041.7323 0,31.4586 -17.7165,0 0,42.2008 17.7165,0 0,49.3347 -17.7165,0 0,42.2008 17.7165,0 0,49.3346 -17.7165,0 0,42.2008 17.7165,0 0,49.3346 -17.7165,0 0,42.2008 17.7165,0 0,49.3347 -17.7165,0 0,42.2008 17.7165,0 0,31.4586" />
      <path
         inkscape:connector-curvature="0"
         id="path8250"
         inkscape:label="part"
         style="fill:none;stroke:#ff0000;stroke-opacity:1"
         d="m 1020.4724,1512.9921 -48.85626,0 0,17.7166 -42.83858,0 0,-17.7166 -48.69685,0 0,17.7166 -42.83858,0 0,-17.7166 -48.69685,0 0,17.7166 -42.83859,0 0,-17.7166 -48.69685,0 0,17.7166 -42.83858,0 0,-17.7166 -48.69685,0 0,17.7166 -42.83858,0 0,-17.7166 -48.8563,0" />
      <path
         inkscape:connector-curvature="0"
         id="path8252"
         inkscape:label="part"
         style="fill:none;stroke:#ff0000;stroke-opacity:1"
         d="m 513.77953,1512.9921 0,-31.4586 17.71653,0 0,-42.2008 -17.71653,0 0,-49.3347 17.71653,0 0,-42.2008 -17.71653,0 0,-49.3346 17.71653,0 0,-42.2008 -17.71653,0 0,-49.3346 17.71653,0 0,-42.2008 -17.71653,0 0,-49.3347 17.71653,0 0,-42.2008 -17.71653,0 0,-31.4586" />
    </g>
    <rect
       style="fill:#000000;fill-opacity:0;stroke:#ff0000;stroke-width:0.33707139;stroke-miterlimit:4;stroke-opacity:1;stroke-dasharray:none"
       id="rect8888"
       width="421.62903"
       height="408.37082"
       x="561.61475"
       y="566.71234" />
  </g>
  <g
     id="g8977">
    <rect
       y="146.71478"
       x="1797.8691"
       height="238.5"
       width="197.71654"
       id="rect8906"
       style="fill:#000000;fill-opacity:0;stroke:#000000;stroke-width:0.35433072;stroke-miterlimit:4;stroke-opacity:1;stroke-dasharray:none" />
    <path
       transform="matrix(0.32820556,0,0,0.32820556,1134.0538,211.80397)"
       d="m 2341.4039,502.487 a 17.235703,17.235703 0 1 1 -34.4714,0 17.235703,17.235703 0 1 1 34.4714,0 z"
       sodipodi:ry="17.235703"
       sodipodi:rx="17.235703"
       sodipodi:cy="502.487"
       sodipodi:cx="2324.1682"
       id="path8908"
       style="fill:#000000;fill-opacity:0;stroke:#ff0000;stroke-width:0.35433072;stroke-miterlimit:4;stroke-opacity:1;stroke-dasharray:none"
       sodipodi:type="arc" />
    <path
       sodipodi:type="arc"
       style="fill:#000000;fill-opacity:0;stroke:#ff0000;stroke-width:0.35433072;stroke-miterlimit:4;stroke-opacity:1;stroke-dasharray:none"
       id="path8914"
       sodipodi:cx="2324.1682"
       sodipodi:cy="502.487"
       sodipodi:rx="17.235703"
       sodipodi:ry="17.235703"
       d="m 2341.4039,502.487 a 17.235703,17.235703 0 1 1 -34.4714,0 17.235703,17.235703 0 1 1 34.4714,0 z"
       transform="matrix(0.32820556,0,0,0.32820556,1224.3103,101.474)" />
    <path
       sodipodi:type="arc"
       style="fill:#000000;fill-opacity:0;stroke:#ff0000;stroke-width:0.35433072;stroke-miterlimit:4;stroke-opacity:1;stroke-dasharray:none"
       id="path8916"
       sodipodi:cx="2324.1682"
       sodipodi:cy="502.487"
       sodipodi:rx="17.235703"
       sodipodi:ry="17.235703"
       d="m 2341.4039,502.487 a 17.235703,17.235703 0 1 1 -34.4714,0 17.235703,17.235703 0 1 1 34.4714,0 z"
       transform="matrix(0.32820556,0,0,0.32820556,1042.6351,101.04187)" />
    <path
       transform="matrix(0.32820556,0,0,0.32820556,1133.7107,-9.93238)"
       d="m 2341.4039,502.487 a 17.235703,17.235703 0 1 1 -34.4714,0 17.235703,17.235703 0 1 1 34.4714,0 z"
       sodipodi:ry="17.235703"
       sodipodi:rx="17.235703"
       sodipodi:cy="502.487"
       sodipodi:cx="2324.1682"
       id="path8922"
       style="fill:#000000;fill-opacity:0;stroke:#ff0000;stroke-width:0.35433072;stroke-miterlimit:4;stroke-opacity:1;stroke-dasharray:none"
       sodipodi:type="arc" />
    <rect
       style="fill:#000000;fill-opacity:0;stroke:#000000;stroke-width:0.30287683;stroke-miterlimit:4;stroke-opacity:1;stroke-dasharray:none"
       id="rect8960"
       width="166.30901"
       height="207.17151"
       x="1812.9974"
       y="162.51018" />
  </g>
  <g
     id="g9005">
    <rect
       style="fill:#000000;fill-opacity:0;stroke:#ff0000;stroke-width:0.35433071999999999;stroke-miterlimit:4;stroke-opacity:1;stroke-dasharray:none"
       id="rect8987"
       width="197.71654"
       height="238.5"
       x="1631.5602"
       y="547.04126" />
    <path
       sodipodi:type="arc"
       style="fill:#000000;fill-opacity:0;stroke:#ff0000;stroke-width:0.35433072;stroke-miterlimit:4;stroke-opacity:1;stroke-dasharray:none"
       id="path8989"
       sodipodi:cx="2324.1682"
       sodipodi:cy="502.487"
       sodipodi:rx="17.235703"
       sodipodi:ry="17.235703"
       d="m 2341.4039,502.487 a 17.235703,17.235703 0 1 1 -34.4714,0 17.235703,17.235703 0 1 1 34.4714,0 z"
       transform="matrix(0.32820556,0,0,0.32820556,967.7448,612.13042)" />
    <path
       transform="matrix(0.32820556,0,0,0.32820556,1058.0013,501.80045)"
       d="m 2341.4039,502.487 a 17.235703,17.235703 0 1 1 -34.4714,0 17.235703,17.235703 0 1 1 34.4714,0 z"
       sodipodi:ry="17.235703"
       sodipodi:rx="17.235703"
       sodipodi:cy="502.487"
       sodipodi:cx="2324.1682"
       id="path8991"
       style="fill:#000000;fill-opacity:0;stroke:#ff0000;stroke-width:0.35433072;stroke-miterlimit:4;stroke-opacity:1;stroke-dasharray:none"
       sodipodi:type="arc" />
    <path
       transform="matrix(0.32820556,0,0,0.32820556,876.3261,501.36832)"
       d="m 2341.4039,502.487 a 17.235703,17.235703 0 1 1 -34.4714,0 17.235703,17.235703 0 1 1 34.4714,0 z"
       sodipodi:ry="17.235703"
       sodipodi:rx="17.235703"
       sodipodi:cy="502.487"
       sodipodi:cx="2324.1682"
       id="path8993"
       style="fill:#000000;fill-opacity:0;stroke:#ff0000;stroke-width:0.35433072;stroke-miterlimit:4;stroke-opacity:1;stroke-dasharray:none"
       sodipodi:type="arc" />
    <path
       sodipodi:type="arc"
       style="fill:#000000;fill-opacity:0;stroke:#ff0000;stroke-width:0.35433072;stroke-miterlimit:4;stroke-opacity:1;stroke-dasharray:none"
       id="path8995"
       sodipodi:cx="2324.1682"
       sodipodi:cy="502.487"
       sodipodi:rx="17.235703"
       sodipodi:ry="17.235703"
       d="m 2341.4039,502.487 a 17.235703,17.235703 0 1 1 -34.4714,0 17.235703,17.235703 0 1 1 34.4714,0 z"
       transform="matrix(0.32820556,0,0,0.32820556,967.4017,390.39407)" />
    <rect
       y="562.83661"
       x="1646.6885"
       height="207.17151"
       width="166.30901"
       id="rect8997"
       style="fill:#000000;fill-opacity:0;stroke:#000000;stroke-width:0.30287683;stroke-miterlimit:4;stroke-opacity:1;stroke-dasharray:none" />
  </g>
  <g
     id="g9538"
     transform="matrix(0,1,-1,0,154.75256,260.20242)">
    <rect
       y="-137.38185"
       x="571.48938"
       height="70.489296"
       width="146.4183"
       id="rect9528"
       style="fill:#000000;fill-opacity:0;stroke:#ff0000;stroke-width:0.29108068;stroke-miterlimit:4;stroke-opacity:1;stroke-dasharray:none" />
    <path
       transform="matrix(0.46809619,0,0,0.95875123,384.27946,-4.6011488)"
       d="m 750.24143,-118.8011 c 0,3.22373 -5.35265,5.83708 -11.95548,5.83708 -6.60283,0 -11.95548,-2.61335 -11.95548,-5.83708 0,-3.22374 5.35265,-5.83709 11.95548,-5.83709 6.60283,0 11.95548,2.61335 11.95548,5.83709 z"
       sodipodi:ry="5.8370867"
       sodipodi:rx="11.955479"
       sodipodi:cy="-118.8011"
       sodipodi:cx="738.28595"
       id="path9530"
       style="fill:#000000;fill-opacity:0;stroke:#ff0000;stroke-width:0.35433072;stroke-miterlimit:4;stroke-opacity:1;stroke-dasharray:none"
       sodipodi:type="arc" />
    <path
       sodipodi:type="arc"
       style="fill:#000000;fill-opacity:0;stroke:#ff0000;stroke-width:0.35433072;stroke-miterlimit:4;stroke-opacity:1;stroke-dasharray:none"
       id="path9532"
       sodipodi:cx="738.28595"
       sodipodi:cy="-118.8011"
       sodipodi:rx="11.955479"
       sodipodi:ry="5.8370867"
       d="m 750.24143,-118.8011 c 0,3.22373 -5.35265,5.83708 -11.95548,5.83708 -6.60283,0 -11.95548,-2.61335 -11.95548,-5.83708 0,-3.22374 5.35265,-5.83709 11.95548,-5.83709 6.60283,0 11.95548,2.61335 11.95548,5.83709 z"
       transform="matrix(0.46809619,0,0,0.95875123,384.27946,27.398851)" />
    <path
       transform="matrix(0.46809619,0,0,0.95875123,214.40403,28.609924)"
       d="m 750.24143,-118.8011 c 0,3.22373 -5.35265,5.83708 -11.95548,5.83708 -6.60283,0 -11.95548,-2.61335 -11.95548,-5.83708 0,-3.22374 5.35265,-5.83709 11.95548,-5.83709 6.60283,0 11.95548,2.61335 11.95548,5.83709 z"
       sodipodi:ry="5.8370867"
       sodipodi:rx="11.955479"
       sodipodi:cy="-118.8011"
       sodipodi:cx="738.28595"
       id="path9534"
       style="fill:#000000;fill-opacity:0;stroke:#ff0000;stroke-width:0.35433072;stroke-miterlimit:4;stroke-opacity:1;stroke-dasharray:none"
       sodipodi:type="arc" />
    <path
       sodipodi:type="arc"
       style="fill:#000000;fill-opacity:0;stroke:#ff0000;stroke-width:0.35433072;stroke-miterlimit:4;stroke-opacity:1;stroke-dasharray:none"
       id="path9536"
       sodipodi:cx="738.28595"
       sodipodi:cy="-118.8011"
       sodipodi:rx="11.955479"
       sodipodi:ry="5.8370867"
       d="m 750.24143,-118.8011 c 0,3.22373 -5.35265,5.83708 -11.95548,5.83708 -6.60283,0 -11.95548,-2.61335 -11.95548,-5.83708 0,-3.22374 5.35265,-5.83709 11.95548,-5.83709 6.60283,0 11.95548,2.61335 11.95548,5.83709 z"
       transform="matrix(0.46809619,0,0,0.95875123,214.23102,-5.9921521)" />
  </g>
  <g
     transform="matrix(0,1,-1,0,153.6895,-252.80778)"
     id="g10998">
    <rect
       style="fill:#000000;fill-opacity:0;stroke:#ff0000;stroke-width:0.29108068;stroke-miterlimit:4;stroke-opacity:1;stroke-dasharray:none"
       id="rect11000"
       width="146.4183"
       height="70.489296"
       x="571.48938"
       y="-137.38185" />
    <path
       sodipodi:type="arc"
       style="fill:#000000;fill-opacity:0;stroke:#ff0000;stroke-width:0.35433072;stroke-miterlimit:4;stroke-opacity:1;stroke-dasharray:none"
       id="path11002"
       sodipodi:cx="738.28595"
       sodipodi:cy="-118.8011"
       sodipodi:rx="11.955479"
       sodipodi:ry="5.8370867"
       d="m 750.24143,-118.8011 c 0,3.22373 -5.35265,5.83708 -11.95548,5.83708 -6.60283,0 -11.95548,-2.61335 -11.95548,-5.83708 0,-3.22374 5.35265,-5.83709 11.95548,-5.83709 6.60283,0 11.95548,2.61335 11.95548,5.83709 z"
       transform="matrix(0.46809619,0,0,0.95875123,384.27946,-4.6011488)" />
    <path
       transform="matrix(0.46809619,0,0,0.95875123,384.27946,27.398851)"
       d="m 750.24143,-118.8011 c 0,3.22373 -5.35265,5.83708 -11.95548,5.83708 -6.60283,0 -11.95548,-2.61335 -11.95548,-5.83708 0,-3.22374 5.35265,-5.83709 11.95548,-5.83709 6.60283,0 11.95548,2.61335 11.95548,5.83709 z"
       sodipodi:ry="5.8370867"
       sodipodi:rx="11.955479"
       sodipodi:cy="-118.8011"
       sodipodi:cx="738.28595"
       id="path11004"
       style="fill:#000000;fill-opacity:0;stroke:#ff0000;stroke-width:0.35433072;stroke-miterlimit:4;stroke-opacity:1;stroke-dasharray:none"
       sodipodi:type="arc" />
    <path
       sodipodi:type="arc"
       style="fill:#000000;fill-opacity:0;stroke:#ff0000;stroke-width:0.35433072;stroke-miterlimit:4;stroke-opacity:1;stroke-dasharray:none"
       id="path11006"
       sodipodi:cx="738.28595"
       sodipodi:cy="-118.8011"
       sodipodi:rx="11.955479"
       sodipodi:ry="5.8370867"
       d="m 750.24143,-118.8011 c 0,3.22373 -5.35265,5.83708 -11.95548,5.83708 -6.60283,0 -11.95548,-2.61335 -11.95548,-5.83708 0,-3.22374 5.35265,-5.83709 11.95548,-5.83709 6.60283,0 11.95548,2.61335 11.95548,5.83709 z"
       transform="matrix(0.46809619,0,0,0.95875123,214.40403,28.609924)" />
    <path
       transform="matrix(0.46809619,0,0,0.95875123,214.23102,-5.9921521)"
       d="m 750.24143,-118.8011 c 0,3.22373 -5.35265,5.83708 -11.95548,5.83708 -6.60283,0 -11.95548,-2.61335 -11.95548,-5.83708 0,-3.22374 5.35265,-5.83709 11.95548,-5.83709 6.60283,0 11.95548,2.61335 11.95548,5.83709 z"
       sodipodi:ry="5.8370867"
       sodipodi:rx="11.955479"
       sodipodi:cy="-118.8011"
       sodipodi:cx="738.28595"
       id="path11008"
       style="fill:#000000;fill-opacity:0;stroke:#ff0000;stroke-width:0.35433072;stroke-miterlimit:4;stroke-opacity:1;stroke-dasharray:none"
       sodipodi:type="arc" />
  </g>
  <path
     d="m 1078.4767,523.13682 49.1752,0 0,17.71653 42.2008,0 0,-17.71653 49.3346,0 0,17.71653 42.2008,0 0,-17.71653 49.3346,0 0,17.71653 42.2008,0 0,-17.71653 49.3347,0 0,17.71653 42.2008,0 0,-17.71653 49.3346,0 0,17.71653 42.2008,0 0,-17.71653 49.1752,0"
     style="fill:none;stroke:#ff0000;stroke-opacity:1"
     inkscape:label="part"
     id="path9015"
     inkscape:connector-curvature="0" />
  <path
     d="m 1585.1696,1029.8297 -49.1752,0 0,-17.7165 -42.2008,0 0,17.7165 -49.3346,0 0,-17.7165 -42.2008,0 0,17.7165 -49.3347,0 0,-17.7165 -42.2008,0 0,17.7165 -49.3346,0 0,-17.7165 -42.2008,0 0,17.7165 -49.3346,0 0,-17.7165 -42.2008,0 0,17.7165 -49.1752,0"
     style="fill:none;stroke:#ff0000;stroke-opacity:1"
     inkscape:label="part"
     id="path9019"
     inkscape:connector-curvature="0" />
  <path
     style="fill:none;stroke:#ff0000;stroke-width:1.00559497px;stroke-linecap:butt;stroke-linejoin:miter;stroke-opacity:1"
     d="m 1078.7501,523.0102 -0.559,506.9725"
     id="path11018"
     inkscape:connector-curvature="0"
     sodipodi:nodetypes="cc" />
  <path
     style="fill:none;stroke:#ff0000;stroke-width:1px;stroke-linecap:butt;stroke-linejoin:miter;stroke-opacity:1"
     d="m 1585.3333,522.36111 -0.6944,506.94449"
     id="path11020"
     inkscape:connector-curvature="0" />
  <rect
     style="fill:#000000;fill-opacity:0;stroke:#ff0000;stroke-width:0.35433072;stroke-miterlimit:4;stroke-opacity:1;stroke-dasharray:none"
     id="rect11050"
     width="48.382915"
     height="18.37326"
     x="4.2870936"
     y="763.22266" />
  <rect
     y="763.22266"
     x="4.2870936"
     height="18.37326"
     width="48.382915"
     id="rect11052"
     style="fill:#000000;fill-opacity:0;stroke:#ff0000;stroke-width:0.35433072;stroke-miterlimit:4;stroke-opacity:1;stroke-dasharray:none" />
  <rect
     style="fill:#000000;fill-opacity:0;stroke:#ff0000;stroke-width:0.35433072;stroke-miterlimit:4;stroke-opacity:1;stroke-dasharray:none"
     id="rect11054"
     width="48.382915"
     height="18.37326"
     x="94.316063"
     y="763.22266" />
  <rect
     y="763.22266"
     x="186.31607"
     height="18.37326"
     width="48.382915"
     id="rect11074"
     style="fill:#000000;fill-opacity:0;stroke:#ff0000;stroke-width:0.35433072;stroke-miterlimit:4;stroke-opacity:1;stroke-dasharray:none" />
  <rect
     style="fill:#000000;fill-opacity:0;stroke:#ff0000;stroke-width:0.35433072;stroke-miterlimit:4;stroke-opacity:1;stroke-dasharray:none"
     id="rect11076"
     width="48.382915"
     height="18.37326"
     x="278.31607"
     y="763.22266" />
  <rect
     y="763.22266"
     x="370.31607"
     height="18.37326"
     width="48.382915"
     id="rect11078"
     style="fill:#000000;fill-opacity:0;stroke:#ff0000;stroke-width:0.35433072;stroke-miterlimit:4;stroke-opacity:1;stroke-dasharray:none" />
  <rect
     style="fill:#000000;fill-opacity:0;stroke:#ff0000;stroke-width:0.35433072;stroke-miterlimit:4;stroke-opacity:1;stroke-dasharray:none"
     id="rect11080"
     width="48.382915"
     height="18.37326"
     x="462.31607"
     y="763.22266" />
  <rect
     y="763.22266"
     x="462.31607"
     height="18.37326"
     width="48.382915"
     id="rect11082"
     style="fill:#000000;fill-opacity:0;stroke:#ff0000;stroke-width:0.35433072;stroke-miterlimit:4;stroke-opacity:1;stroke-dasharray:none" />
  <g
     id="g11096"
     transform="translate(-2,2)">
    <rect
       y="247.22266"
       x="4.2870936"
       height="18.37326"
       width="48.382915"
       id="rect11084"
       style="fill:#000000;fill-opacity:0;stroke:#ff0000;stroke-width:0.35433072;stroke-miterlimit:4;stroke-opacity:1;stroke-dasharray:none" />
    <rect
       style="fill:#000000;fill-opacity:0;stroke:#ff0000;stroke-width:0.35433072;stroke-miterlimit:4;stroke-opacity:1;stroke-dasharray:none"
       id="rect11086"
       width="48.382915"
       height="18.37326"
       x="94.316063"
       y="247.22266" />
    <rect
       y="247.22266"
       x="186.31607"
       height="18.37326"
       width="48.382915"
       id="rect11088"
       style="fill:#000000;fill-opacity:0;stroke:#ff0000;stroke-width:0.35433072;stroke-miterlimit:4;stroke-opacity:1;stroke-dasharray:none" />
    <rect
       style="fill:#000000;fill-opacity:0;stroke:#ff0000;stroke-width:0.35433072;stroke-miterlimit:4;stroke-opacity:1;stroke-dasharray:none"
       id="rect11090"
       width="48.382915"
       height="18.37326"
       x="278.31607"
       y="247.22266" />
    <rect
       y="247.22266"
       x="370.31607"
       height="18.37326"
       width="48.382915"
       id="rect11092"
       style="fill:#000000;fill-opacity:0;stroke:#ff0000;stroke-width:0.35433072;stroke-miterlimit:4;stroke-opacity:1;stroke-dasharray:none" />
    <rect
       y="247.22266"
       x="462.31607"
       height="18.37326"
       width="48.382915"
       id="rect11094"
       style="fill:#000000;fill-opacity:0;stroke:#ff0000;stroke-width:0.35433072;stroke-miterlimit:4;stroke-opacity:1;stroke-dasharray:none" />
  </g>
</svg>
